<svg xmlns="http://www.w3.org/2000/svg" display="block" viewBox="0 0 1024 1024">
  <path fill="#a794bc" d="M0 0h1024v1024H0V0Z"/>
  <path fill="#04022c" d="m542 252 3.3.7 8.7 2.3 3.7 1a149 149 0 0 1 60.3 35l1.7 1.6a147 147 0 0 1 41.1 65l.6 2a136.4 136.4 0 0 1 2.2 8.9c1.9 9.7 1.6 19.4 1.5 29.3a5016.8 5016.8 0 0 0-.1 18.2l2.4.9a51 51 0 0 1 24.8 63.8L691 483l-1 2.1a52 52 0 0 1-24.1 25c-6 3.4-7.7 6.7-10.3 12.8a40.8 40.8 0 0 1-18.3 17.2c-3.3 1.8-3.3 1.8-5.1 5-.9 15.3 10.7 30.2 19.3 41.9a109.2 109.2 0 0 1 18.5 36l.8 2.6A73 73 0 0 1 668 669l1.7.3c30.5 8.7 58.2 39.4 73.5 65.8a138.8 138.8 0 0 1 18.1 71.3 7897.9 7897.9 0 0 1 .5 38v3.2c0 2.3 0 2.3 1.2 3.4l7.6.2h2.5a3011.4 3011.4 0 0 0 28 .3l14.8.2 29.1.3.6-2.2.8-3 .8-2.9c1.1-4 2.4-8 3.8-11.9l-2-.6c-13.2-6.3-22.4-20.4-28-33.4-1.3-4.3-2-7.8-.2-12 2.2-3.1 4.2-4 7.9-5 6.2.6 10.3 5.6 14.3 10 6.7 8.1 12 18.3 11 29h2l.3-2c.8-3.5 2-6.6 3.3-9.8l1.3-3.5 1.1-2.7-1.8-.8C852.6 797 849.4 788 847 780l-1.3-3.7c-1.7-7.6-2.3-18 1.1-25.2 2.2-3.1 2.2-3.1 5.2-5.1 3.9-.4 6.2-.4 9.7 1.4a32 32 0 0 1 7.4 22.3v6.6a3146382467 3146382467 0 0 1-.1 11.7l1.2-2 1.6-2.8 1.6-2.6a35.1 35.1 0 0 1 19-16.3c3.8-.6 5.8-.7 9.2 1.1 2 3.6 2 6.6 1.4 10.6a40.7 40.7 0 0 1-20.7 24.4c-7.4 3.6-7.4 3.6-11.4 3.8-3.3.6-3.3.6-5 4.2l-1.8 4.2-.9 2.1a295 295 0 0 0-2.2 5.3l2.6-1a44.1 44.1 0 0 1 24.4-4c2.2 1.2 4.2 2.2 6 4 0 3.3 0 3.3-1 7-6.8 6.8-17 8.1-26.2 8.2-3.6 0-7.2 0-10.8-.2l-.8 3.4c-1.2 4.9-2.7 9.7-4.2 14.6h2.6a4115.7 4115.7 0 0 1 19.9-.1h3.6c2.9.1 2.9.1 4.9 1.1v5c-1.7 1.7-3.6 1.1-6 1.1h-32.8a22040 22040 0 0 1-107.2 0 235421.3 235421.3 0 0 0-56.5 0H564.4a5613723.3 5613723.3 0 0 1-243.4.1h-3a97000.6 97000.6 0 0 0-174 0h-9.7c-2.2-.2-2.2-.2-4.2-2.2l1-5h33l-4-13-3.5-.3c-13-1-25.6-3.3-35.5-12.7-1.5-3-1.3-5.6-1-9 2.7-2.7 4.8-3.5 8.6-3.5 6.2.2 11 2.7 16.5 5.5l3 1.4 6.9 3.6c0-3.1-.5-6-1-9h-2.8c-9.5-1.4-17.7-10.7-23.2-18-5.8-8.2-12.7-19.7-11-30 1-2.9 1-2.9 3-5 3.1-1.2 3.1-1.2 7-1 12 5.4 19.3 17.2 23.8 29l2.2 6 .3-2.3a45.1 45.1 0 0 1 9-22.8c2.7-1.9 2.7-1.9 6.3-2.5 3.4.6 3.4.6 5.6 2.7 2.2 3.6 2.4 6.4 2.3 10.5v2.2c-.4 9.8-3.8 18-10.5 25.2-4.4 4-4.4 4-7 4l3 14h2l.7-2.5c1.5-4 3.4-7.6 5.5-11.4l1.2-2.1a44 44 0 0 1 13.6-16c3.3-.3 5.3-.4 8.2 1.2 1.8 1.8 1.8 1.8 2.4 4 0 10.6-4.9 17.9-12 25.5A40.7 40.7 0 0 1 166 836l4 16h34l-.3-12.2a77 77 0 0 1 10.5-39.2 44 44 0 0 0 4-31.3 93.1 93.1 0 0 0-19-30.7c-3.2-3.8-6.2-7.7-9.2-11.6-3.2.5-6.2 1.4-9.2 2.5-4.8 1.7-9.2 2-14.2 2h-2.5A39.2 39.2 0 0 1 146 727l-2.6-1.3c-16.8-9-24.6-27.7-32.6-44-2.5-5.2-5.2-10.2-7.9-15.3-4-7.5-7.7-15-11.3-22.8-2.5-5.4-5.1-10.7-7.8-16-8.3-16.4-14.4-32.1-9.2-50.6a54.3 54.3 0 0 1 24.8-28.9c3.4-1.5 6.8-2 10.4-2.6 2.5-.4 2.5-.4 4.9-2.7 2.3-1.8 2.3-1.8 5.8-1.9 5.2 1.6 7.6 4.6 10.4 9.2l1.7 3.7 1 2 2.2 4.6c1.3 2.9 2.8 5.8 4.2 8.6l3 6.4 1.5 3c2.8 6 5 11.9 3.5 18.6-1.2 1.8-1.2 1.8-3 3h-4.6a29 29 0 0 0-15.3 4.3l-2.5 1.2c-5.6 2.8-5.6 2.8-10.6 6.5a35.1 35.1 0 0 0 .1 10c.9 5.9 3.8 10.7 6.8 15.8a372.6 372.6 0 0 1 12.5 23.8A4440.8 4440.8 0 0 1 139 677c7.1.4 12-2.5 18.2-5.7l3.3-1.6 3.2-1.6 2.9-1.4c2.7-2 3.9-3.7 5.4-6.7 1-1 1-1 4.2-1.4 4.6.5 6.7 2.1 9.8 5.4 2.5 3.3 4.8 6.7 7 10.2l1.8 2.7C210 700.3 210 700.3 209 709c-1.6 2.9-1.6 2.9-4 5l-6 1c-1.6 2-2 3.2-1.9 5.8 1.3 3.3 3.8 5.5 6.3 8 16 16.9 25.4 33 24.8 56.8a73.1 73.1 0 0 1-11.7 33.1c-5.3 10.4-4.3 22-4.5 33.3l46-1 .1-13.2a7870.9 7870.9 0 0 1 .2-21.7c.3-31.5.3-31.5 3.7-44.1l.7-2.6 2-6.4.8-2.2c2.8-8 6.5-15.4 10.5-22.8l1.8-3.2c14.5-26 43.1-56.6 72.6-65.5l1.6-.3-.9-3a84.3 84.3 0 0 1 8.9-67c3-4.9 6.5-9.4 10-14 10.9-14.7 17.6-28 17.3-46.6V535c0-6.3-.7-12-2.3-18.1l2-.3c5.7-.9 5.7-.9 10.6-3.6 2.8-4.1 2.7-8.5 3-13.3v-2.3l.4-5.5c1.8 3 2.4 5.9 2.8 9.4 3.2 23 14.8 42.8 30.2 59.6l2 2.3c5.8 6 12.6 11.6 20.1 15.2 2.9 2.5 2.9 2.5 3.4 4.4.2 2.5.1 4.8 0 7.3v2.7a380.2 380.2 0 0 1-.5 14.4c-.4 13.5-1.7 25.4-11.7 35.4-3.3 1.9-6.4 1.6-10 1.5H435l-5.1-.2 2 2 6.3 6.3c7.1 7.3 7.1 7.3 14.6 14.1 4.8 4.1 9.2 8.6 13.6 13.1 3.8 3.8 7.6 7.5 11.7 11 2.9 2.4 5.5 5.2 8.1 7.9a7.5 7.5 0 0 0 3.7 2.6v2l1.8.8c2.5 1.3 4.1 2.9 6 4.9a584635761.8 584635761.8 0 0 1 4.4 4.4l2.3 2.3 5.5 5.6a2092 2092 0 0 0 12.8-12.9l2-2c4-4 8.2-7.9 12.5-11.6 2-1.7 3.8-3.6 5.7-5.5a164 164 0 0 1 10-9.3c2.5-2.2 4.8-4.5 7.1-6.9l5.6-5 13.1-12 2.3-2.2 8.9-8.6h-3c-10.4 0-10.4 0-14.4-2.6-1.8-2-3.2-4-4.6-6.4l-1.2-1.9c-5.7-9.7-5.4-22.5-5.6-33.5l-.2-4.6c-.8-13-.8-13 3.6-18 3-2.2 6.1-4 9.4-6 11.5-9.3 11.5-9.3 20-21h-28l-2 6a22.9 22.9 0 0 1-16.4 8.4 22 22 0 0 1-11.6-4.4l-3.3-4.4c-1.7-2.1-1.7-2.1-3.7-3.6-2.8 0-5 .5-7.6 1.3A43.7 43.7 0 0 1 490 551a43 43 0 0 1-17-18c.4-2.8.4-2.8 1-5l5-1 1.7 2.2c6.3 8.1 12.7 15 23.3 16.8 8 .7 14 0 21-4l2-1 1.3-3.1c2.2-5.5 5.6-9.5 10.5-12.8a23 23 0 0 1 17.5.5 25 25 0 0 1 9.7 9.4l1 6a480.4 480.4 0 0 0 19 .3c9.4.5 9.4.5 17.5-3.6 1.9-2.8 3.2-5.6 4.5-8.7l1-2.1c5.4-11.3 8-23.6 10-35.9h1v3.7l.2 5v2.4c.2 4.1.5 7 3 10.4 2.8 2.5 4 3.3 7.6 3.9l4.2.6-3 14a83 83 0 0 0 16-15l-1.9.6c-2.1.4-2.1.4-4.1-.6V413h13a1842.7 1842.7 0 0 0-.3-18.3A128 128 0 0 0 619 307l-2.7-2.9A137.1 137.1 0 0 0 589 282c-30.4-20.4-72-26.8-107.7-19.9a139 139 0 0 0-64.2 31.5c-2.4 2.1-4 3.5-7.1 4.5v2c-1 1-2.1 1.8-3.3 2.7a136 136 0 0 0-32.1 46.3l-1 2a111.4 111.4 0 0 0-7.4 44.6 2575.6 2575.6 0 0 1-.2 17.4l4-1h9l1 105c-15.4 0-28.6-6-39.7-16.5a56.2 56.2 0 0 1-14.8-40.6 50.5 50.5 0 0 1 16.3-35c9.3-7.9 9.3-7.9 14.2-7.9v-3.6a1670.3 1670.3 0 0 1-.3-19.2c-.2-12.7.7-24 4.3-36.2l.7-2.6a138 138 0 0 1 34.8-56.8l4.4-4.7a156.5 156.5 0 0 1 80-42.7 147 147 0 0 1 62.1.8Z"/>
  <path fill="#fcfafd" d="M500 344c3 1 3 1 4.6 4l1.8 4c15 31.6 44.7 52 76.9 63.6 7.3 2.4 14.8 4 22.3 5.6l4 .8 9.4 2a6228.1 6228.1 0 0 1 .3 55.3c.2 21.4-4.7 41-16 59.3-2.6 2.7-4.2 3-8 3l-2.1-.1h-2.3a476.8 476.8 0 0 1-12-.3L567 541l-.5-1.6a23 23 0 0 0-11.8-13.8c-6-1.4-11.6-1.7-17 1.5a23.7 23.7 0 0 0-9.5 12.6c-2.3 4.4-7.7 5.8-12.2 7.3-10.4.8-18.7-.6-27-7.1a68 68 0 0 1-8.1-10L479 528h-4c-.9 2.9-1.2 4.4 0 7.2 6.5 9.4 14 15.1 25 18.8a194.3 194.3 0 0 0 11 .2 45 45 0 0 0 13.1-1.8c2.6-.5 2.6-.5 4.9-.4 2.5 2 4.2 4.2 6.2 6.7 3.3 4.2 6.9 5 12.2 5.7 6-.7 10.8-2.6 15-6.9 1.8-2.7 1.8-2.7 3.6-6.5h28a50.6 50.6 0 0 1-9 12l-1.8 2c-4 4.2-8.4 7.9-13 11.5l-1.8 1.4c-4.1 3.1-4.1 3.1-6.4 3.1a3141.4 3141.4 0 0 0 .4 19.1c0 17.6 0 17.6 5.5 33.9l1.5 2.6c1.7 2.6 3 4.5 5.6 6.4a58.5 58.5 0 0 0 10.5.8l5.5.2a143 143 0 0 1-16.7 17.2 395.2 395.2 0 0 0-16.9 15.6l-2.2 2.1a2319.9 2319.9 0 0 1-19.3 18c-11.1 10.4-11.1 10.4-21.9 21.1l-4 4-1.6-1.6a6331 6331 0 0 0-7.3-7.3l-2.5-2.6-2.5-2.5-2.2-2.2c-1.8-1.9-1.8-1.9-3.9-2.8v-2l-1.6-.6c-3.3-1.9-5.6-4.4-8.1-7a142 142 0 0 0-10.1-9.7c-4.9-4.1-9.2-8.7-13.7-13.2-3.8-3.8-7.6-7.5-11.7-11-2.8-2.4-5.4-5-8-7.7-2-2-2-2-4.8-4.2l-2-1.6v-2l3.1-.1 4.1-.3h2.1c5.2-.3 5.2-.3 9.7-2.6 1.2-1.8 1.2-1.8 2-4l1.3-2.4 1.3-2.6 1.3-2.6c3.4-7.4 2.9-16.2 3.2-24.3l.4-5.8c1.2-11.2 1.2-11.2-2.7-21-2.9-1.8-5.7-3-8.8-4.3a66.1 66.1 0 0 1-6.6-5.8l-1.7-1.6A123.4 123.4 0 0 1 408 521l-.7-1.8a70.5 70.5 0 0 1-4.3-16.3 163 163 0 0 1-1.6-30.3v-13.2l-.2-13.5-.2-30.9 3-.8c36.7-10.2 71.8-28.8 92-62.5a197 197 0 0 0 4-7.7Z"/>
  <path fill="#03022b" d="M510 268.6h2.5c32.6.2 61.7 10.9 86.5 32.4l2 1.5c5.5 4.4 9.7 10 14 15.5l2 2.6a117.7 117.7 0 0 1 19 38.5c3 8.5 4.2 16.2 4.1 25.1v2.6a3056.9 3056.9 0 0 1-.1 27.2l-1.9-1a17.6 17.6 0 0 0-11.1-1c-4.2 3-5.7 6-7 11-28 3-62.4-15-83.4-32a122.1 122.1 0 0 1-33.3-43.4c-1-2.7-1-2.7-3.3-3.6l-.6 2.4c-11.1 28.2-41.9 48.3-68.5 59.8-22.5 9.5-22.5 9.5-32.9 8.8l-2.3-1.5c-3.8-2.1-7.4-2-11.7-1.5l-3 1c-5-32 1.1-62.3 20.1-88.8 21.4-28.6 51.9-49 87.3-54.8 7.2-.8 14.4-.8 21.6-.8Z"/>
  <path fill="#03022a" d="M781 270.5h25a4255.1 4255.1 0 0 1 39.1 0 5487.5 5487.5 0 0 1 40.9.1h3.6c9.8 0 18.3 1.4 25.6 8.3a33.4 33.4 0 0 1 8 24v9.4a4279.7 4279.7 0 0 1 .4 40.2c.1 10.8-1 18.7-8 27.4a27.6 27.6 0 0 1-18 7 655.4 655.4 0 0 0-22-.5c-11.3-.4-20.3-.6-29.1 7.2-2.8 2.7-5.4 5.6-7.9 8.5a69.7 69.7 0 0 1-7.1 6.9l-6.9 6.3c-7.3 6.8-7.3 6.8-12.6 6.7-1-1-1-1-1.1-4.2v-6.6a2469.7 2469.7 0 0 1 .1-24.2h-4a1643.7 1643.7 0 0 1-30.2.5H774a28 28 0 0 1-20-7.3 27 27 0 0 1-7.4-20v-2.3a757.6 757.6 0 0 1 0-23.3 1556.5 1556.5 0 0 0-.1-29.5c0-10.4-.1-19 7.6-26.9 7.9-7 16.7-7.8 26.9-7.7Z"/>
  <path fill="#03022c" d="M109 292.9h3.9a27447.4 27447.4 0 0 1 81-.2 7624.3 7624.3 0 0 1 60.3 0c2.8.3 2.8.3 4.6 1.6 3 4.3 2.4 9.5 2.4 14.5v2.7a2672.8 2672.8 0 0 1 .1 27.8 3166.5 3166.5 0 0 0 .2 43.8v2.5c0 4-.2 6-2.4 9.4-3.4 3.2-5.4 3.1-10 3.2h-3.9a22961.6 22961.6 0 0 1-100.2.3 1835.8 1835.8 0 0 0-34.7.1H107c-4-.8-5.5-2.4-8-5.6-.6-2-.6-2-.6-4v-7.7a735.2 735.2 0 0 1 .1-15l.2-16.3v-16.5L99 301l3.8 2.8 2 1.6 6 4.5c6.4 4.8 12.8 9.6 19.4 14.2 5 3.6 10 7.3 14.8 11a703.2 703.2 0 0 0 24.8 18.5c5.1 3.8 9 4.1 15.2 3.4 2.7-1 4.6-2.4 7-4l2-1v2l2 .6c4.2 2 7.8 4.7 11.5 7.5a4857.4 4857.4 0 0 0 7.2 5.3c4.1 3 8.3 5.8 12.4 8.6a986 986 0 0 1 23 16.4c2.8 1.9 2.8 1.9 5.8 1.3l2.1-.7c-.4-2.6-.7-3.8-2.7-5.6a2697009258 2697009258 0 0 1-4.8-3.2l-2.7-1.8-5.5-3.8-2.8-1.9-9.6-6.8-1.7-1.1-9.8-7.2-2.5-1.7-4.7-3.4c-4-3-8-5.8-12.2-8.5a86 86 0 0 1 12.2-10.4c6-4.5 12-9 17.8-13.6a1208 1208 0 0 1 21.7-16.6l1.8-1.3c1.3-1 2.6-1.8 4-2.7 1.9-1.4 1.9-1.4 1.7-4.6l-.2-2.8c-5.2 2-8.7 4.1-12.8 7.9a189 189 0 0 1-15.7 12.3c-7 4.9-13.7 10-20.4 15.1l-16.5 12.5-2.3 1.7c-4.7 3.1-8.6 5.4-14.3 4.5a52 52 0 0 1-6.2-4.6 1021.8 1021.8 0 0 0-5.7-4.7c-3.7-3-7.6-5.8-11.5-8.6l-18-13.4a907.2 907.2 0 0 0-23.4-17c-4-3-6.2-4.3-11.2-3.7 2.5-5.1 3.2-5.1 9-5.1ZM867 467l5 4 2 1.6a52 52 0 0 1 16.3 34c.6 14.5-1.5 26-11.4 37.4l-1.9 2-2.6 2.8-2.4 2.2-1.4 1.4A73.9 73.9 0 0 1 838 568l-1.8.5A78.1 78.1 0 0 1 797 566c-6.5-2.1-6.5-2.1-13-.8l-2.9 2-3.1 2-3.2 2.2-6.4 4.2-2.8 1.9a19 19 0 0 1-7.7 2.5c-.7-8 2.3-15.4 4.6-23.1l1-3.3.9-3c1-4.8-1-7.9-3.3-12.1a53.7 53.7 0 0 1-5.3-41.5 67.6 67.6 0 0 1 37.3-38.5A77.5 77.5 0 0 1 867 467Z"/>
  <path fill="#fdfafd" d="M459 582c3.3 1 6.6 2.2 9.7 3.6A104.4 104.4 0 0 0 557 584a883 883 0 0 1 5-2v3a2713 2713 0 0 0 .4 15.6 69 69 0 0 0 5.5 33.4l1.5 2.6c1.7 2.6 3 4.5 5.6 6.4 2.9.4 5.4.7 8.3.8h2.2l5.5.2a143 143 0 0 1-16.7 17.2 395.2 395.2 0 0 0-16.9 15.6l-2.2 2.1a2319.9 2319.9 0 0 1-19.3 18c-11.1 10.4-11.1 10.4-21.9 21.1l-4 4-1.6-1.6a6331 6331 0 0 0-7.3-7.3l-2.5-2.6-2.5-2.5-2.2-2.2c-1.8-1.9-1.8-1.9-3.9-2.8v-2l-1.6-.6c-3.3-1.9-5.6-4.4-8.1-7a142 142 0 0 0-10.1-9.7c-4.9-4.1-9.2-8.7-13.7-13.2-3.8-3.8-7.6-7.5-11.7-11-2.8-2.4-5.4-5-8-7.7-2-2-2-2-4.8-4.2l-2-1.6v-2l3.1-.1a6270.5 6270.5 0 0 0 6.2-.4c5.2-.2 5.2-.2 9.7-2.5 1.2-1.8 1.2-1.8 2-4l1.3-2.4 1.3-2.6 1.3-2.6c1.6-3.5 2.2-6.6 2.3-10.5a1134535825 1134535825 0 0 0 0-5l.1-2.7.3-11.3.1-8.2v-2.6c.2-6 .2-6 1.3-7.1Z"/>
  <path fill="#a896be" d="M240 455.9a59.8 59.8 0 0 1 24 38.1 63.4 63.4 0 0 1-12 46l-2.3 3.3a59.7 59.7 0 0 1-40.1 18A60.3 60.3 0 0 1 166 544a62.5 62.5 0 0 1-16.2-47.8 58.6 58.6 0 0 1 19.4-36.8 60 60 0 0 1 70.7-3.5Z"/>
  <path fill="#aa9bc0" d="m542 262 2.2.5A146 146 0 0 1 599 288l3 2.2c26.1 20.3 47.7 51 52.5 84.5.5 4.2.6 8.3.6 12.5v2.3a2270.3 2270.3 0 0 1-.1 23.5h-13v103h6a24 24 0 0 1-5.9 8l-2 2.1c-5.4 4.9-5.4 4.9-8.1 4.9a1655.9 1655.9 0 0 1 1.5-9.2c.5-2.8.5-2.8 1.5-4.8l-3 .4c-5.2-.5-7.6-2.7-11-6.4-6.6-13.1-2.1-37.6-2-52.3V424l-4-1h5l-.3-2.2c.4-3.7 1.8-5.1 4.3-7.8 3.1-2 4-2.3 7.5-2.3h2.3c2.2.3 2.2.3 5.2 2.3a2023.1 2023.1 0 0 0 .2-20.7c.4-27.2-8.1-53-25.2-74.3l-2.3-3a97 97 0 0 0-18.7-18l-3-2.3c-8.2-6-16.8-10.5-26-14.7l-1.9-.9a120 120 0 0 0-51.9-9.5H508a122.7 122.7 0 0 0-84.9 32.4l-4.2 3.5A130 130 0 0 0 386 355l-.9 2c-6.8 17.4-5 37.6-5.1 56h-14a1370.6 1370.6 0 0 1-.3-19.8 95.5 95.5 0 0 1 8-44.4l1-2.2a171.4 171.4 0 0 1 28.3-41.4l1.4-1.6 3.6-3.6h2v-2c3.4-3.3 7.2-6.1 11-9l1.6-1.3A145 145 0 0 1 451 271l2-.9a144.5 144.5 0 0 1 32.2-9.8c18.5-3.3 38.5-2.4 56.8 1.7Z"/>
  <path fill="#04022b" d="M301.3 192.8a40.3 40.3 0 0 1 44 44.6c0 6-.8 10.8-3.6 16.1-2 7.5 4 18.2 6.6 25.2l1 3 1 2.6c.8 3 1 5.6.7 8.7-2 2-2 2-4.8 2.3-3.7-.4-5-1.2-7.8-3.6l-2.5-2.2a1239.8 1239.8 0 0 1-11.3-10c-5.5-4.8-10.4-4.6-17.4-4.4A39 39 0 0 1 276 264a42 42 0 0 1-13.4-29.8c.3-12.4 5.8-23 14.6-31.4 7-6 15-9.3 24.1-10Z"/>
  <path fill="#2e225a" d="m919 620 2 1a6406.3 6406.3 0 0 1 .3 62v3.7c-.4 3.8-1 6-3.3 9.3a22 22 0 0 1-15.4 4.5H900a683.6 683.6 0 0 1-13.5 0 1842.2 1842.2 0 0 1-26.6 0 1777.5 1777.5 0 0 1-24.7 0H833c-5.1 0-8.1-1.1-12-4.5a20.3 20.3 0 0 1-3.3-13 280975902.2 280975902.2 0 0 0 0-25l.2-12.1.1-23.9c4 0 4 0 7 2.6a298.2 298.2 0 0 1 8.4 8.8 83 83 0 0 0 5.9 5.3c3.9 3.3 7.1 7 10.5 11 2.4 2.5 5 4.8 7.7 7 2.1 1.9 3.8 4 5.5 6.3 2.4 2.5 3.5 3 7 3.2 6-1 10-6.6 14-10.8l5-5.4c1-.8 1.7-1.7 2.6-2.6a142 142 0 0 1 8.6-7.8c2.7-2.4 5-5 7.4-7.7 3.7-4 7.4-8 11.4-11.9Z"/>
  <path fill="#4f437a" d="M363.2 663c4.1 1.5 6.6 4.3 9.6 7.3A187.3 187.3 0 0 0 412 699l1.9 1a189 189 0 0 0 32.1 15l-.3-7.8V705c-.2-4.3-.2-4.3-2.2-7.8L442 696c-.5-3.6-.5-5.3 1.6-8.4 3.1-2 4.7-2.2 8.4-1.6a9.6 9.6 0 0 1 4 4c.3 3.1.4 5.2-1 8-.2 1.5-.2 3-.3 4.6l-.1 2.7-.2 2.8v2.9l-.4 7c19.4 5 38.3 7.6 58.4 7.4h2.8c14 0 27.3-.8 40.8-4.4l3.7-1 7.3-2-.4-10.1-.2-3c-.1-3.8-.3-7.5-1-11.4-.4-2.5-.4-2.5 1.1-5.4 2.5-2.1 2.5-2.1 6-2.2 3.5 1.1 3.5 1.1 5.5 2.8 1.4 3.2 1 5 0 8.3l-4 2v17c25-11.2 47.4-22.8 68-41l2.4-2 2-1.9 1.9-1.6 3.3-3c1.6-1.5 1.6-1.5 4.4-3.5 4.2.2 4.2.2 6 2 .5 2.2.5 2.2 0 5-2 2.2-4 4-6.4 6l-2 1.7a470.6 470.6 0 0 1-8.7 7C595.3 724 595.3 724 574 724v87l5 2c2.5 3.8 2.5 5.5 2 10-1.9 3.2-3.4 5.3-6.9 6.8-3.2.7-5.2.6-8.2-.8-3.4-2.7-4.8-4.2-5.6-8.6 1-4.8 3.3-7 6.7-10.4.2-2.7.3-5.2.2-7.8v-2.5a1515.8 1515.8 0 0 0 0-28.3l-.1-15-.1-29.4-1.6.4-7.4 2-2.6.7c-14 3.7-27.9 4.2-42.3 4.2h-8.5a181.8 181.8 0 0 1-29.4-1.9c-7.2-1.2-14.2-3.3-21.2-5.4a5814.9 5814.9 0 0 0 .3 75.6v2.3c.1 5.9 2 8 5.7 12.1 0 4.3-.6 6.4-3 9.9-2.6 2.7-3.4 3-7.3 3.4-4.3-.3-5.7-1.3-8.7-4.3a14.4 14.4 0 0 1-1-10l2.5-2.1c3.2-3.8 3.2-6.7 3.2-11.5V800a664.1 664.1 0 0 0 0-14.2l.1-15.4v-15.6c.2-10.2.2-20.5.2-30.7l-2-.6-2.7-.8-2.7-.8a101.7 101.7 0 0 1-13.5-5.5 176 176 0 0 1-38-23.1c-8.1-6-15.8-12.2-23.1-19.2l-2.8-2.6c-2.2-2.4-2.2-2.4-2.5-5.2l.3-2.2c2-1 2-1 4.2-1Z"/>
  <path fill="#9e8eba" d="M459 582c3.3 1 6.6 2.2 9.7 3.6A104.4 104.4 0 0 0 557 584l5-2 1 38-1-3-1.6 1.3A102.6 102.6 0 0 1 521 636l-2.4.5A86.3 86.3 0 0 1 458 625c-1.7-3.4-1-7.2-1-11l.2-2.6a2065.3 2065.3 0 0 1 .5-22.2c.2-6 .2-6 1.3-7.2Z"/>
  <path fill="#fdfbfd" d="M144.7 254.6h2.7a1058.3 1058.3 0 0 1 27.5 0 2175.4 2175.4 0 0 0 34.8-.1h10.9c4 0 6 .2 9.3 2.3 9.4 10 4.1 21 4.1 36.2H128c0-30.7 0-30.7 5.7-36.8 3.6-1.8 7.1-1.6 11-1.6Z"/>
  <path fill="#06052b" d="M240 455.9a59.8 59.8 0 0 1 24 38.1 63.4 63.4 0 0 1-12 46l-2.3 3.3a59.7 59.7 0 0 1-40.1 18A60.3 60.3 0 0 1 166 544a62.5 62.5 0 0 1-16.2-47.8 58.6 58.6 0 0 1 19.4-36.8 60 60 0 0 1 70.7-3.5Zm-69.3 16.4A51.3 51.3 0 0 0 160 511a47.2 47.2 0 0 0 18.9 30.7A47.4 47.4 0 0 0 221 549l2.4-.7a49.1 49.1 0 0 0 27.5-25.6 53.7 53.7 0 0 0 1-36.9c-6.7-14.7-18-22.9-32.7-29a47.2 47.2 0 0 0-48.4 15.5Z"/>
  <path fill="#9183b2" d="M833.7 615.5h2.5a769.6 769.6 0 0 1 14.3 0 2067.4 2067.4 0 0 1 27.9 0 2508 2508 0 0 1 26 .1h2.3c4.9 0 8 .9 12.3 3.4-1.6 4-4.2 6.3-7.2 9.2-3.2 3.2-6.3 6.3-9.2 9.7a123 123 0 0 1-11.5 11.4c-2.9 2.6-5.7 5.3-8.4 8.1l-1.5 1.7-3 3.2a14.8 14.8 0 0 1-7.8 4.7c-3.9 0-4.8-.4-7.5-3.1l-2-1.8-1.9-2.1-7.4-7.4c-3.9-3.8-7.7-7.6-11.2-11.8a80 80 0 0 0-9.3-9c-3.6-3-6.8-6.5-10.1-9.8l-2-2c5-4 8.4-4.6 14.7-4.5Z"/>
  <path fill="#040428" d="M655.6 208c5 .8 9.1 3.2 13.4 6l2.6 1.7A78.9 78.9 0 0 1 685 235l1-2.3a43.5 43.5 0 0 1 22-23.7c3-.4 6-.5 9 0 2 2 2 2 2.4 5-.4 9.7-5.9 16.7-12.5 23.4A31.5 31.5 0 0 1 686 246l1 3 .6 7.7v2.1l.4 5.2 2.6-2c5.7-3.4 12.2-3 18.6-1.5a22 22 0 0 1 9.8 7.5c.4 2.5.4 2.5 0 5a28.5 28.5 0 0 1-17 8l-2.2.3c-5.6.4-8.6-1-13-4.4l-1.8-.9c-2 .7-2 .7-4 2-6.6 3-12.5 4.3-19.6 2.3-5-1.9-9.3-3.8-12.4-8.3-.4-3-.4-3 1-6 3.6-3.7 7.2-5.7 12.3-6.5 5.9-.1 10.7 0 15.7 3.5l3 2v-10.8c-.1-6-.1-6 1-8.2h-3.9c-9.3-1.1-17.4-9-23.1-16-3.6-5.5-6.9-12.2-6-19 2.2-3 2.7-3 6.6-3Z"/>
  <path fill="#03012b" d="m99 301 11.8 8.9c7 5.2 14 10.4 21.1 15.4 4.6 3.3 9 6.7 13.5 10.1 4.1 3.3 8.5 6.3 12.9 9.2l1.7 1.4v2l-3.7 2.7a459237497.3 459237497.3 0 0 0-5 3.2c-6 4-11.8 8.1-17.4 12.7a385.4 385.4 0 0 1-27.2 19.7l-2.7 2-2.3 1.6C100 391 100 391 99 391v-90Z"/>
  <path fill="#7c6aa4" d="M640 379h1v33h9v1h-8v103h6a24 24 0 0 1-5.9 8l-2 2.1c-5.4 4.9-5.4 4.9-8.1 4.9l1-5.9.5-3.3c.5-2.8.5-2.8 1.5-4.8l-3 .4c-5.2-.5-7.6-2.7-11-6.4-6.6-13.1-2.1-37.6-2-52.3V424l-4-1h5l-.3-2.2c.4-3.7 1.8-5.1 4.3-7.8 3.1-2 4-2.3 7.5-2.3h2.3c2.2.3 2.2.3 5.2 2.3l1-34Z"/>
  <path fill="#7f70a3" d="M380 405h1l1 7 2-1c5.8-.7 10.3.1 15.5 2.7 2 1.7 2 2.7 2.5 5.3l.1 6.9v2a1990.6 1990.6 0 0 1 0 34.4 5234.1 5234.1 0 0 1 0 14.6c0 8 0 16-.4 23.9l-.2 3.8c-.7 4.7-2.7 8.5-6.5 11.4-2.6.8-2.6.8-5.4 1.3l-3 .6c-2.9.1-4.2-.1-6.6-1.9a25 25 0 0 1-1.1-8.2v-8.1a3835.4 3835.4 0 0 1 0-47.5 9936.1 9936.1 0 0 1 0-29.3v-2.7c0-5.1.4-10 1.1-15.2Z"/>
  <path fill="#8a7dac" d="M430 644c12.6-1.4 12.6-1.4 17.8 1.6 2.6 2.4 4.9 4.8 7.2 7.4l5.9 5.3c4.8 4.4 9.3 8.9 13.9 13.5 2.6 2.6 5.2 5.2 8 7.6 4.7 3.9 8.8 8.2 13 12.5 3.5 3.5 7 6.7 10.8 9.8 1.4 1.3 1.4 1.3 2.4 3.3 3.2-1.4 5.4-3.1 7.8-5.7l2.2-2.2 2.3-2.3c4.8-5 9.7-9.8 15-14.3l4.6-4.4c2.1-2.1 2.1-2.1 4.1-2.1l.8-1.8a18 18 0 0 1 4.8-5.5c3-2.4 5.7-5 8.4-7.7 3.2-3.3 6.6-6.4 10.1-9.4 2-1.6 2-1.6 3.6-3.8 3.3-2.6 6.5-2.2 10.5-2h2.3l5.5.2a143 143 0 0 1-16.7 17.2 395.2 395.2 0 0 0-16.9 15.6l-2.2 2.1a2319.9 2319.9 0 0 1-19.3 18c-11.1 10.4-11.1 10.4-21.9 21.1l-4 4-1.6-1.6a6331 6331 0 0 0-7.3-7.3l-2.5-2.6-2.5-2.5-2.2-2.2c-1.8-1.9-1.8-1.9-3.9-2.8v-2l-1.6-.6c-3.3-1.9-5.6-4.4-8.1-7a142 142 0 0 0-10.1-9.7c-4.9-4.1-9.2-8.7-13.7-13.2-3.8-3.8-7.6-7.5-11.7-11-2.8-2.4-5.4-5-8-7.7-2-2-2-2-4.8-4.2l-2-1.6v-2Z"/>
  <path fill="#6c5d97" d="M264.2 607.6A51 51 0 0 1 282 642l.2 2.8c.2 4 .3 6.4-1.8 9.8-3.2 1.9-4.8 1.9-8.4 1.4a130 130 0 0 1-8-3v-2.2c-.7-10.5-2.7-19.4-10-27-3.2-2.8-6.3-5-10-6.8l-3.4-1.8c-8-2.8-19.3-2.8-27 .7a61.4 61.4 0 0 0-12.3 10.3c-2.3 1.8-2.3 1.8-4.9 2.2-2.7-.5-4-1.2-6.2-3l-1.8-1.4c-2.2-3.1-1.9-5.3-1.4-9 6.3-9 17-16.8 27.8-19.4 18-2.6 35.2-.1 49.4 12Z"/>
  <path fill="#a18db6" d="m109 47 2 2 4 1 1-2v3l13 3 1-3 2 3-2 1a78 78 0 0 0-2 5l3 1-2 2c3 1.8 4.2 2 8 2-1.9 5.8-1.9 5.8-3 8l5 1c1 3 1 3 0 5.2l-1 1.8-1-2-4 1-1-5-4-1-.4 1.8-.5 2.5-.6 2.3c-.4 2.2-1 4.3-1.5 6.4h2v-2l3.3 1c3.5 1.1 3.5 1.1 6.7 1v2l3 1-4 2 1 4 1-2 3 1-1 5 2 1-2 .9c-2.2 1-2.2 1-3 3.1h-2l-1 4h-3l-2 2c-2 .2-2 .2-4.4 0-3 0-4.7 0-7.6 1v-2l-4-2v-2l-2-1-1-2-1 2-4-2 2-1-1-2c-2.4.6-4.7 1.2-7 2l-2-7 1-1v-3l-2-1-1 2-2-2c-2.2-.2-2.2-.2-4 2v-3l-6-2 2-6 6-1v-3.8l.1-2.2c0-2.2 0-2.2-1.1-5h2l1-2c3-3 5.8-2.6 10-3v-3l1-3 1 2h2l-1-5 4-2-2-2c.4-2.1.4-2.1 1-4Zm33 52 2 1Zm-17 12 2 2h-2v-2Z"/>
  <path fill="#72699d" d="m258 296 1 6a558.6 558.6 0 0 1-19.8 15.4c-4.4 3.2-8.7 6.6-13 10-8.6 6.8-17.4 13.2-26.2 19.6a351.4 351.4 0 0 0 16.6 12.6 690 690 0 0 0 18.5 13c4.2 3 8.4 6 12.6 8.8l2.7 1.9 2.5 1.8 2.2 1.5a23 23 0 0 1 3.9 3.4c-.4 2.1-.4 2.1-1 4-2.1.7-2.1.7-5 1-2.8-1.5-2.8-1.5-6-3.8l-1.6-1.3-3.6-2.6-8.6-6.2-1.8-1.2A1756.7 1756.7 0 0 1 193 353l-2.3 2c-4.2 3.2-7.9 3.5-13 3.4-4.8-.7-8-3.4-11.7-6.4l-2.4-1.9a687 687 0 0 1-5-4c-3.5-2.8-7-5.4-10.7-8l-9-6.9c-5-3.8-10-7.4-15.2-11-8.6-6-16.7-12.5-24.7-19.2l1-4c5.3-.7 7.9.9 12 4l2.2 1.6 2.4 1.8 4.9 3.7 9.7 7.2a2509.3 2509.3 0 0 1 31.3 23.3l3.2 2.4 2.7 2a149 149 0 0 1 5.3 4.2c2.2 2 2.2 2 5 2.4 8-1.4 14.5-7.1 20.7-12 6.3-5 12.7-10 19.2-14.7l2.4-1.8a33076.7 33076.7 0 0 1 15.6-11.5l2-1.5c4.6-3.4 9-7 13.4-10.8 2-1.3 2-1.3 6-1.3Z"/>
  <path fill="#9b8bb8" d="M459 582c3.3 1 6.6 2.2 9.7 3.6a94.3 94.3 0 0 0 26.1 7.7c3.2.7 4.3 1.1 6.2 3.7l-2 1 5 1-2 1-1 2-4 1 4 2-1 2 3 1-2 1v2l4-1v3l2 1-2 7 2 1-4 1v-2.3c.1-2.8.1-2.8-1-5.7-1 3.2-.9 3.9 0 7v3l3-1 3 3-2 1 1 2c-3.5 1.2-5.4.8-9 0l-1-1c-2 1.3-2 1.3-4 3v4c-12 .8-25-4.6-35-11-1.7-3.4-1-7.2-1-11l.2-2.6a2065.3 2065.3 0 0 1 .5-22.2c.2-6 .2-6 1.3-7.2Zm41 29-2 2h3l-1-2Zm3-7c2.4-.2 2.4-.2 5 0l2 3h-8l1-3Z"/>
  <path fill="#04012b" d="m859 658 4 5c2.6 2.6 3.6 3 7.3 3.1 4.4-1.3 6.1-3.2 9-6.7 1.7-1.4 1.7-1.4 3.7-1.3a12 12 0 0 1 5 4.3c3 3.6 6.3 6.9 9.8 10l1.6 1.4a361.8 361.8 0 0 0 12.8 11.2c1.8 2 1.8 2 1.8 6h-86l-2-4a2256.4 2256.4 0 0 1 10.1-10.3l2.2-2.2 2-2c1.7-1.5 1.7-1.5 3.7-1.5v-2c1.6-1.6 1.6-1.6 3.8-3.4 2.3-2 4.4-3.8 6.5-6 1.7-1.6 1.7-1.6 4.7-1.6Z"/>
  <path fill="#a08fb9" d="M469 476.8a27 27 0 0 1 7 6.2l2.2 2.4c3.6 5 4.7 10.5 3.8 16.6a27.2 27.2 0 0 1-14 17.2 24.8 24.8 0 0 1-19-.2c-6.1-3-9.3-7-12-13.1-2-6.2-2.4-12.5 0-18.5 7.1-11.8 19.5-16.7 32-10.6Zm106 1.2c2.8 2.4 2.8 2.4 5 5l2.3 2.6c4 5.4 3.2 12 2.7 18.4a24.3 24.3 0 0 1-27 17c-3.1-1.1-6-2.5-9-4l-2-1v-2h-2a32 32 0 0 1-5-24c2.2-6.5 7.3-10.6 13-14 8-3.6 14.7-2.3 22 2Z"/>
  <path fill="#362864" d="M681 248h1l1 19 2 1 1-19h1l1 15 6-4c7-1.1 13.9-.7 20 3 4.8 4 4.8 4 5.4 7.5-.4 2.5-.4 2.5-2 4.2A36 36 0 0 1 702 281l-2.2.3c-5.6.4-8.6-1-13-4.4l-1.8-.9c-2 .7-2 .7-4 2-6.6 3-12.5 4.3-19.6 2.3-5-1.9-9.3-3.8-12.4-8.3-.4-3-.4-3 1-6 3.6-3.7 7.2-5.7 12.3-6.5 5.9-.1 10.7 0 15.7 3.5l3 2v-17Z"/>
  <path fill="#030231" d="M819 621c4.1 1.6 6.8 4.6 9.8 7.7 3.3 3.4 6.7 6.8 10.4 10 4.7 4 8.7 8.6 12.8 13.3-1.6 4.3-4.8 6.9-8.1 9.8l-1.8 1.6a906.6 906.6 0 0 1-7.5 6.8c-5 4.4-5 4.4-7.3 6A19.4 19.4 0 0 0 820 687h-2a17545.2 17545.2 0 0 1-.1-62.4c.1-2.6.1-2.6 1.1-3.6Z"/>
  <path fill="#05042d" d="M840 628h59c-5.3 8-11.8 14-19 20.2-3.5 3.1-6.7 6.5-10 9.8-3.6-3-7.1-6-10.4-9.4a121 121 0 0 0-7.5-7c-4.2-3.7-8.5-7.4-12.1-11.6v-2Z"/>
  <path fill="#73679e" d="M99 297c6.8-.8 10 1.5 15.3 5.6a1311003445 1311003445 0 0 1 48.2 36l3.2 2.4 2.7 2a149 149 0 0 1 5.3 4.2c2.2 2 2.2 2 5 2.4 4-.7 6.8-2.3 10.2-4.4 2.1-1.2 2.1-1.2 5.1-2.2l2 3 2 2-4.8 4.4-2.7 2.5c-4 3.4-7.8 3.6-12.8 3.5-4.8-.7-8-3.4-11.7-6.4l-2.4-1.9a687 687 0 0 1-5-4c-3.5-2.8-7-5.4-10.7-8l-9-6.9c-5-3.8-10-7.4-15.2-11-6-4.2-12-8.6-17.8-13.2l-2-1.6-2-1.6-1.7-1.3C99 301 99 301 99 297Z"/>
  <path fill="#443774" d="M826.8 206.9c4.6 1.6 9 4.6 11.2 9.1l1.2-2.3c2-3.1 3.4-4.3 6.8-5.7 2.8-.3 5.1-.2 8 0l2 2c0 4.3-.5 6.4-3.3 9.8-2.2 1.8-4 3.1-6.7 4.2l2.8 1.3c3 1.6 5 2.8 7.2 5.7.5 3.2.5 5-1 7.9-3.2 1.8-5.4 1.6-9 1.1-3.4-2-5.8-4.7-8-8l-1.8 2.9C834 238 834 238 831 240c-2.7.5-5.3.5-8 0-2-1.6-2-1.6-3-4 0-3.1.1-5 2.3-7.4 1.5-1.3 3.1-2.4 4.7-3.6l2-2-2.8-1.3c-4.7-2.5-4.7-2.5-6.2-4.7-.5-3.7-.4-5.3 1.6-8.4 2.4-1.6 2.4-1.6 5.2-1.7Z"/>
  <path fill="#8f85b1" d="M515 453c2 1.6 2.9 2.4 3.4 5v5l-.1 3v2.9a1357.4 1357.4 0 0 1-.2 15.6L518 500l3 1c.4 4.4.5 6.3-2.3 9.9-4.2 3.3-7.5 3.5-12.7 3.1a35 35 0 0 1-8-6c-.4-2.9-.4-4.4 1.3-6.8 1.9-1.3 3.4-1.7 5.7-2.2v-3.9a2709.6 2709.6 0 0 1 .5-29.4v-5.4l.1-2.3c1-5.2 4.7-5.6 9.4-5Z"/>
  <path fill="#3d3069" d="M120.5 541c5.2 1.5 7.6 4.5 10.4 9.1a213.5 213.5 0 0 1 4.9 10.3c1.3 2.9 2.8 5.8 4.2 8.6l3 6.4 1.5 3c2.8 6 5 11.9 3.5 18.6-1.4 1.8-1.4 1.8-3 3-2.3 0-2.3 0-4.7-.3l-2.4-.4c-.7 0-1.3-.2-1.9-.3l1-2a649 649 0 0 1-12.6-27l-1-2.2a2901.3 2901.3 0 0 1-6.5-14.5l-1.5-3.5c-1.2-2.9-1.2-2.9-3.4-4.8 3-3 4.3-4 8.5-4Z"/>
  <path fill="#382b6a" d="M176.2 658.6c4.6.5 6.7 2.1 9.8 5.4 2.5 3.3 4.8 6.7 7 10.2l1.8 2.7C210 700.3 210 700.3 209 709c-1.6 3-1.6 3-4 5-3.3.3-3.3.3-6 0l-.8-2.6c-4.4-12.3-13.6-23.6-20.9-34.4l-2-3-1.9-2.7C172 669 172 669 171 666l-2-1c3.5-6 3.5-6 7.2-6.4Z"/>
  <path fill="#9686b4" d="M459 582c4 1.2 7.5 2.6 11 5v2l2 1-.8 5.4c0 1-.2 2-.4 3-.8 2.6-.8 2.6-2.9 4l-1.9.6 2 2v-2l5-2c0 3 0 3-1 6l-3-2-1 3c-3.1-.3-4.6-.6-6.8-2.9-1.8-4.6-1.4-9.2-1.2-14.1l2 4 4-1v3l2-2-1-2h-5l-1-3h-1l-.1 11.8v3.3l-.1 3.3v3a13 13 0 0 0 2.2 6.6l1-1c4.3.4 6.2 1.8 9 5 .1-1.2.1-1.2-1.5-2.6L469 618a22 22 0 0 1 13.5 6.7c1.6 1.5 1.6 1.5 4.5 2.3l2-4h2l-1-9c4 2 4 2 5 3l2-1c.7-2 .7-2 1-4l3 1v-2l4-1v3l2 1-2 7 2 1-4 1v-2.3c.1-2.8.1-2.8-1-5.7-1 3.2-.9 3.9 0 7v3l3-1 3 3-2 1 1 2c-3.5 1.2-5.4.8-9 0l-1-1c-2 1.3-2 1.3-4 3v4c-12 .8-25-4.6-35-11-1.7-3.4-1-7.2-1-11l.2-2.6a2065.3 2065.3 0 0 1 .5-22.2c.2-6 .2-6 1.3-7.2Z"/>
  <path fill="#03022e" d="m914 625 2 1a853 853 0 0 1-1 49c-4.3 0-4.5 0-7.4-2.8l-1.8-1.8-2-2c-5.4-5.1-10.7-10-16.8-14.4 1.3-3 2.8-5 5.2-7.2l2-1.7 2-1.9c4.8-4.3 9.4-8.6 13.5-13.6a63 63 0 0 1 4.3-4.6Z"/>
  <path fill="#090630" d="M227.6 605.7h2.1c11.4.1 21.5 4.3 29.7 12.2 7.6 8.1 11 15.9 10.7 27v2.4l-.1 5.7-5 1c-1.7-1.7-1.2-4-1.3-6.4A35.5 35.5 0 0 0 252 622a52 52 0 0 0-8-5l-3.4-1.8c-8-2.8-19.3-2.8-27 .7a61.4 61.4 0 0 0-12.3 10.3c-2.7 2-4 2.2-7.3 1.8-.7-1.7-.7-1.7-1-4a42 42 0 0 1 23.2-17.5c3.8-.7 7.5-.8 11.4-.8Z"/>
  <path fill="#4e3f77" d="m454 718 3 .8a207 207 0 0 0 61.8 6.4h8c5.8 0 11.5-.5 17.2-1.2l-1 8c-9.7 2.5-19.6 2.3-29.5 2.3h-8.6c-17.5.1-34.2-1.9-50.9-7.3v-9Z"/>
  <path fill="#a18db8" d="M290 0h46l1 4h-2l-1 3-3-1V4c-4.8 2.6-4.8 2.6-9 5.9-2 1.1-2 1.1-5.3.3L314 9c0 3.8.5 5.6 2 9-3.6 3-3.6 3-7 3l1 3-2 3-2-6-3 3v-2l-5 1c-.7-1.8-.7-1.8-1-4 1.4-2.3 1.4-2.3 3-4l-2-3h-2v-2a24 24 0 0 0-9 6l-3-2 1-5h3l5-1c.2-3 .2-3-1-6h-2V0Z"/>
  <path fill="#3e2f6a" d="M240 623c2.9 1.8 5.6 3.6 8 6v2h2c3.9 6.5 6.4 12.3 5 20-2 2-2 2-5.1 2.1l-2.9-.1-.4-2.4c-1.7-8-3.7-13.2-10.5-18-4.4-2.4-9-4-14.1-2.6a56.3 56.3 0 0 0-6.8 4.6 13.4 13.4 0 0 1-7.2 2.4l-3-2c.4-4.8 2.5-8 6-11a28.9 28.9 0 0 1 29-1Z"/>
  <path fill="#3d3466" d="M160 347a33 33 0 0 1 5 3v3c-1.4 1.4-1.4 1.4-3.5 2.8l-2.2 1.6-2.5 1.7-5 3.5-2.5 1.7-9.2 7a477.4 477.4 0 0 1-21 15.6l-2 1.5-3.9 3A35 35 0 0 1 103 397l-4-4c1.1-3.3 1.6-3.7 4.3-5.5l2-1.5 2.3-1.5 4.7-3.2 2.4-1.7 10.1-7.3 1.9-1.4c3.8-2.7 7.5-5.6 11.2-8.4 7.2-5.4 14.7-10.4 22.1-15.5Z"/>
  <path fill="#41366e" d="M197 348c4.7.2 7.8 2.7 11.4 5.4l3.8 2.8 2 1.4 8.6 6.3 1.7 1.2a2134.2 2134.2 0 0 0 26 18.3l3 2.1 2.6 1.8c1.9 1.7 1.9 1.7 2.8 3.8l.1 1.9-2 2c-4.6-.2-8-2.7-11.7-5.3l-2-1.3c-5.9-4-11.7-8.3-17.5-12.5-10.4-7.6-21-14.8-31.8-21.9.6-2.9.9-3.9 3-6Z"/>
  <path fill="#a18db6" d="M600.5-.1h14.3l9.2.1c-1 3-1.8 4.8-4 7v3c-3.7 1.1-3.7 1.1-6 0 0 3 0 5 1 8l-2 3h-2l-.4 1.6c-.7 2.9-1.7 5.6-2.6 8.4l-1-1.5c-3-2.3-5.4-1.8-9-1.5l-3 1v2h-2l-1-7-3 1-2-1v-5l7.8-1.6 2.2-.4v-2l7-3V8l-5 1-2-3 2-2-2-3c1-1 1-1 3.5-1.1ZM594 26v2l2-1-2-1Zm-9-3 2 1-1 2-1-3Z"/>
  <path fill="#493a70" d="M667 417c6 3 6 3 7 4l.2 6.1v4a5676 5676 0 0 1 .2 53c-.4 3.2-1.2 4.5-3.4 6.9l-4-1v-73Z"/>
  <path fill="#08072d" d="M235 480c2.7.3 2.7.3 5 1l1 5-1.7 1.2a86627.6 86627.6 0 0 0-10.2 7.6l-2.6 1.8a1321298425.1 1321298425.1 0 0 0-6.7 5.1C218 503 218 503 216 503c0 1-.2 1.8-.3 2.8-.8 3.8-1.5 5-4.7 7.2-5 .7-6.8.8-11-2-2.5-3.8-2.8-5.6-2-10 1.9-3 1.9-3 5-5 2.1 0 2.1 0 4.6.3 6.5.1 10.3-2.8 15.3-6.6l2.6-1.8c4.3-3 4.3-3 8-6.6l1.5-1.3Z"/>
  <path fill="#07062d" d="M563 443c3.7 1.8 6.2 4.1 7.8 8 .7 3.8.3 5.7-1.4 9.3-3.4 3.9-5.7 5.5-10.8 6.1-4.9-.6-8-2.3-11-6.1-1-3.5-1.3-6.8-.6-10.3 3.8-6.6 8.7-8.2 16-7Z"/>
  <path fill="#06052c" d="M466 443c3.7 1.6 4.8 2.6 7 6 .7 4 1 8.2-1 12a13 13 0 0 1-7 5c-4.3.4-6.5.3-10.3-1.8-3.9-3.2-3.9-3.2-4.7-6.2-.4-5.4-.5-8.6 3-13 4.3-2.8 8-2.5 13-2Z"/>
  <path fill="#4f3e73" d="m355 417-1 74c-4-1-4-1-6-3-.3-2.8-.3-2.8-.4-6.3v-2l-.2-6.4V471a2131.3 2131.3 0 0 1-.8-32.9 320.1 320.1 0 0 0-.2-10.6l-.1-3.6c.7-3 .7-3 3.6-5.4 3.1-1.6 3.1-1.6 5.1-1.6Z"/>
  <path fill="#423973" d="M307 223c3.8 2 7 4.1 9 8 .6 4.3.3 6.5-1.8 10.3-3.3 4-4.8 4.5-10 5.1-3.3 0-5.1-.7-7.6-2.7-3.6-3.7-4-6.6-3.9-11.7.5-3.2 2-4.8 4.3-7 3.8-2.5 5.5-2.5 10-2Z"/>
  <path fill="#f8f5fa" d="M951 504h5c1.3 2.6 1.1 4.7 1 7.6v5.4h2.3l3-.1 3-.1c2.7.2 2.7.2 5.7 2.2v4c-2.8 1.4-5 1.1-8.1 1H957v4.9l.1 2.7c-.1 2.4-.1 2.4-1.1 4.4-4.9-.9-4.9-.9-6-2v-10h-13l-1-5c2-2 2-2 5-2.2l10 .2v-13Z"/>
  <path fill="#faf8fc" d="m767 653 5 1v14h13l1 4c-2 2-2 2-4.6 2.2h-3l-3-.1-2.4-.1v2l.1 2.8.1 2.7c-.2 2.5-.2 2.5-2.2 5.5l-5-1v-12h-13l-2-4c2-2 2-2 5-2.2h3.6l3.6.1 2.8.1v-6.4l-.1-3.6c.1-3 .1-3 1.1-5ZM406 200l5 1v12l5.9-.1c3.3-.1 3.3-.1 6.1.1l2 2c-.5 3.5-.5 3.5-2 5h-12v12l-5 1c-1-1-1-1-1.1-3.7v-6.7l.1-2.6h-2.8l-3.6.1-3.6.1c-3-.2-3-.2-5-2.2l1-4h14v-13l1-1Z"/>
  <path fill="#221855" d="M714 583c3 1.4 3 1.4 5 4 1.2 4 2 8 0 12a17.7 17.7 0 0 1-6 5c-7 .6-7 .6-11-1.9-3.3-3.5-3.3-6.1-3.3-10.8.4-3.4 2-5 4.3-7.3 3.5-1.7 7.2-1.4 11-1Z"/>
  <path fill="#a08eb7" d="M16 50c1.7 1.5 1.7 1.5 3 3l-2 1-2-1v2h2l-2 5h-2l-1 2-1 1c4.1 1 4.1 1 8 0l1 3c3 1.3 3 1.3 6 0-1.8 4.9-1.8 4.9-4 6l-1 3c-2 .7-2 .7-4 1v-3l-8-1-1 3-2.9-.6c-3-.7-3-.7-5.1.6V54l6-1v2c8.6-5 8.6-5 10-5Zm2 19 1 2Zm-1 2 1 3 2-1-3-2Z"/>
  <path fill="#170f48" d="M819 621c4.1 1.6 6.8 4.6 9.8 7.7 3.3 3.4 6.7 6.8 10.4 10 4.7 4 8.7 8.6 12.8 13.3l-1 3c-3.7-3-7-6-10-9.6-2-2.4-3.8-4-6.4-5.7L832 638v-2l-1.7-.8c-2.7-1.4-5-3.2-7.3-5.2-.8 2.8-1.1 5.2-1 8.1v5.1a442.3 442.3 0 0 1-.9 30.9l-.1 2.6c0 2.3 0 2.3.6 4.5.4 1.8.4 1.8-.5 4L820 687h-2a17545.2 17545.2 0 0 1-.1-62.4c.1-2.6.1-2.6 1.1-3.6Z"/>
  <path fill="#7f72a7" d="M157 336c5.6 1.7 9.4 5.4 13.7 9.2 3 2.4 4.7 3.7 8.4 4.3 3-.5 5-1.3 7.6-3 2.5-1.5 4.5-2.6 7.3-3.5l2 3 2 2-4.8 4.4-2.7 2.5c-4 3.4-7.8 3.6-12.8 3.5-4.8-.7-8-3.4-11.7-6.4l-3-2.4-8-6.6 1.5-1.4 1.5-1.6c-.2-2.2-.2-2.2-1-4Z"/>
  <path fill="#fdfbfd" d="M70 486c3.7.7 3.7.7 5 2v12h12l1 5c-1 1-1 1-3.7 1.1h-6.7L75 506v2.3l.1 3 .1 3.1C75 517 75 517 73 519l-4-1v-12H55c-1-4-1-4 0-6h14v-13l1-1Z"/>
  <path fill="#a698bf" d="M496 259c29.1-.4 29.1-.4 42 2l-1 3h-2v5a64 64 0 0 1-14.5.9h-2.4a2247.8 2247.8 0 0 1-25.1-.9l3-1 1-2 3 1v-2l2-1c-2-3-2.8-3.6-6-5Z"/>
  <path fill="#a08db8" d="M22 0h56v2c-1.6 1.1-1.6 1.1-4 2l-6-2-3 1-1 3c-6.1 3-6.1 3-9 3l-1 2-2-1V8l-5-2V4l-8-2v3l5-1-2 5h-3l-2-3-1 2-3-1-1 3-3 1 .3 2.3c-.4 3.5-1.7 4.5-4.3 6.7l-1-9 4-2 1-2 2 1V5h-6V3l-3-1V0Z"/>
  <path fill="#f8f8fa" d="M838 319c3 1.8 5.4 3.9 7 7 .4 4.6-.1 7.3-3 11-3.4 2.6-6.8 2.5-11 2-3.6-3-5.7-5.1-6.4-9.8.5-4.5 2.2-6 5.4-9.2 2.9-1.5 4.8-1.4 8-1Z"/>
  <path fill="#f3f5f8" d="M873 319c5.6 3.2 5.6 3.2 7 6 .6 7 .6 7-1.9 11-2.9 2.8-3.8 3-8 3.4-3.6 0-4-.4-7.1-2.9-2.7-3.9-2.7-6.9-2-11.5 3.4-5.3 5.8-6.6 12-6Z"/>
  <path fill="#665690" d="M576 811c3.6 2.6 4.8 4 5.6 8.4-.8 4.7-2 6.5-5.6 9.6a13 13 0 0 1-8 1 18 18 0 0 1-7-6c-.8-4.2-.5-6.1 1.7-9.8 4.2-4 7.7-5 13.3-3.2Z"/>
  <path fill="#67568f" d="M452.6 810.5c2.6.5 3.8 1.1 5.6 3 2.2 4.3 2.2 6 .8 10.5-1.8 2.7-3 4.5-6 6-4.2.4-6.3.5-9.9-1.9-2.9-2.9-3-3.7-3.5-8 .1-3.2.4-4.1 2.3-7.1a15 15 0 0 1 10.7-2.5Z"/>
  <path fill="#372964" d="M231 637c2.9 2 4.6 3.4 5.4 7 .3 3.8-.2 5.6-2.3 9-2.7 2.6-3.6 3-7.4 3.3-4.3-.3-5.7-1.3-8.7-4.3a15.5 15.5 0 0 1-1-10c4.5-5.5 7-6.6 14-5Z"/>
  <path fill="#f2f3f8" d="M803 319c2.7 1.8 4.5 3 6 6 .4 4.4.5 7-1.4 11-3.7 2.9-7 3.4-11.6 3a13 13 0 0 1-6-6c-.7-7.1-.7-7.1 2.4-11 3.8-3 5.8-3.5 10.6-3Z"/>
  <path fill="#0a0a2c" d="m458.2 419.8 2.2-.1c5.3 0 9 .8 13.6 3.3 1 2.6 1 2.6 1 5-2 2-2 2-5 2.2-3-.2-3-.2-5-1.2a26 26 0 0 0-17.3 3.1 9.3 9.3 0 0 1-6.7.9c-2-2-2-2-2.1-4.3 3.1-7.5 12.1-8.9 19.3-9Z"/>
  <path fill="#0b0a34" d="M579 425c1 1 1 1 1.2 3.4-.2 2.6-.2 2.6-2.2 4.6-3.5-.2-6-1-9.2-2.6-6-2.7-13-1.7-19.4-.8l-3.4.4c-2-2-2-2-2-4.4 1-2.6 1-2.6 3.6-4.4A38.5 38.5 0 0 1 579 425Z"/>
  <path fill="#4b3d78" d="M805 502c2.8 1.8 4.5 3 6 6 .4 4 .3 6.3-1.5 9.9a12.7 12.7 0 0 1-8.4 3.4c-4-.6-6.7-3-9.1-6.3-1-4.1-.2-5.6 1.9-9.3 3.3-4.3 5.8-4.2 11.1-3.7Z"/>
  <path fill="#9888b6" d="M522 617c2.6 2.6 2.5 4.5 3 8l1.8.4c2.2.6 2.2.6 5.2 2.6l3-1-1-2h-2l2-4h2l1-3 3-1 1 2h-2v4l-1 1 6 2 1-2h2l1-2 3 1c-6.3 6.8-16 10-25 12h-4v-3l4 1v-3c-3.8.5-5.4 1.2-8 4h-2v-4l-3-1-1 3h-3c-1.1-3.8-1.1-3.8 0-6-.4-2.1-.4-2.1-1-4l3-2 1-2 4 2h-2l1 5-2 1 3 1 2-3 2 1 2-2-1-4 1-2Z"/>
  <path fill="#4d407a" d="M842.8 501.8c3.6.2 5.3 1 8.2 3.2 2.3 3.5 2.4 4.9 2 9a14.9 14.9 0 0 1-4.8 6.4 15 15 0 0 1-9.2-.4c-3.2-3-4.8-4.8-5.6-9 .8-4 2.6-5.5 5.6-8 1-1 1-1 3.8-1.3Z"/>
  <path fill="#403369" d="M886 653c5 3 9 6.6 13.3 10.5 1.9 1.8 3.8 3.4 5.8 5 7.7 6.4 7.7 6.4 8.4 10-.3 2.1-.3 2.1-1.5 5.5-4.8-2.2-8.1-5.5-12-9l-1.8-1.6-6-5.6-2-1.8c-3-2.8-5.9-5.5-8.2-9l4-4Z"/>
  <path fill="#6d629f" d="M99 297c6-.8 8.9.8 13.7 4.4l2.3 1.8 2.3 1.7 4.5 3.5 9.2 6.6-3 8a218.8 218.8 0 0 1-24.8-18.3L99 301v-4Z"/>
  <path fill="#ae9cc4" d="M831 701h71v1l-14 1-1 4-3-1 1 3-5-1-3 5 2 1h-2v2l-2 2c-2.2 0-2.2 0-4.6-.4l-2.5-.3-1.9-.3v-3l5-2c-.7-3.6-.7-3.6-2-7h-3l-1 2v-4l-34-1v-1Z"/>
  <path fill="#413172" d="M850 207.8h2.1c1.9.2 1.9.2 3.9 2.2 0 4.1-.6 6.5-3 9.9-4 2.8-7.3 3-12 3.1l-.3 2-.7 2-3 1c-1.6-2.3-1.6-2.3-3-5 .8-2.3.8-2.3 2-4h3l-.3-2.2c.4-4 2.3-5.3 5.3-7.8 2.2-1.1 3.5-1.2 6-1.2Z"/>
  <path fill="#9f8db6" d="m7 99 3 2h2l1 3c-3 1-3 1-5 0l1 3-2 2c0 2 0 2 1 4 2.5 1.3 2.5 1.3 5 2-1.1 3.4-2.5 4.5-5 7l-2 4-2 1-1 2.5C2 132 2 132 0 133v-32l5 1v2h2l-1-3 1-2Z"/>
  <path fill="#ab9dc8" d="M232 629.6c5.5 2.4 10 6.3 13 11.4l-1 3v-2h-2l-2 4v-2h-2l-1 4-1.1-3.8a10.4 10.4 0 0 0-4.7-6.3c-4.8-1.4-7.7-.7-12 1.7L217 641l-.4-2c-.4-2-.4-2-1.6-3v-3c5.7-3.8 10.3-5.4 17-3.4Z"/>
  <path fill="#9484b1" d="M459 582c4 1.2 7.5 2.6 11 5v2l2 1-.8 5.4c0 1-.2 2-.4 3-.8 2.6-.8 2.6-2.9 4l-1.9.6 2 2v-2l5-2c0 3 0 3-1 6l-3-2-1 3c-3.1-.3-4.6-.6-6.8-2.9-1.8-4.6-1.4-9.2-1.2-14.1l2 4 4-1v3l2-2-1-2h-5l-1-3h-1l-1 28h-1a5893 5893 0 0 1-.1-27.2v-2.4l.1-5.4 1-1Z"/>
  <path fill="#a18cb7" d="M178 1010c2.1.4 2.1.4 4 1l-1 5 2.3-.5c4.1-.8 6.1-.9 9.7 1.5-6 3-6 3-9 4l-1 2c-1 1-1 1-4.6 1.1h-6.8l-5.6-.1c-1-3-1-3-.2-5 3-5 4.7-5.5 10.2-7l2-2Zm15 4 2 1-2 1v-2Z"/>
  <path fill="#a08db8" d="M761 0h30l-3 4c.2 2.2.2 2.2 1 4h2v3l-4-2V7h-3v3h-2l-1 2V9h-5V6h-3l-1-3h-2l-2 3h-2l-1 3c-2 .7-2 .7-4 1l.6-1.8A12 12 0 0 0 761 2V0Z"/>
  <path fill="#a08cb8" d="M658 0h26l-1 3-1.9-.6L679 2l-2 2-2 2-2 3c-2 .5-3.9 1-6 1l-1 2c-5.6-1.5-5.6-1.5-7.4-3.8C658 6 658 6 658 0Z"/>
  <path fill="#493f76" d="M307 223c3.4 2 3.4 2 6 4l-2 5-1.6-1c-3.2-1.3-6-1.1-9.4-1-.5 5.1-.5 5.1 2 9.4l2 1.6-5-1v3h-3c-3-3.5-3.5-6.6-3.4-11 .6-3.2 2.2-4.9 4.4-7 3.8-2.5 5.5-2.5 10-2Z"/>
  <path fill="#5f5891" d="m258 296 1 6c-6.1 5-12.3 9.7-19 14l-2-3-3-2a1884.4 1884.4 0 0 1 12.5-10l2.4-2 2-1.8c2.1-1.2 2.1-1.2 6.1-1.2Z"/>
  <path fill="#a08eb6" d="m16 134 2 2c-.4 2.1-.4 2.1-1 4h-3a44 44 0 0 0-2.5 7.2C11 149 11 149 9 151v2H4v-5l-4 1c-.4-7.5-.4-7.5 1.3-10 1.7-1 1.7-1 4.7-2l2-2v2l3-2c2.6-.8 2.6-.8 5-1Z"/>
  <path fill="#a08db8" d="M875-.1h15.6C893 0 893 0 896 1v2h-2l-1 3c-4.6 2-10 3.1-15 3-2.3-1-2.3-1-4-2V5h-4l-1-4c1.7-1.7 3.7-1.1 6-1.1Z"/>
  <path fill="#5b5083" d="M452 686a9.6 9.6 0 0 1 4 4c.3 3.1.4 5.2-1 8h-2l-1 3c-2.8.3-2.8.3-6 0a11.5 11.5 0 0 1-4.5-8c.5-3 .5-3 2.1-5.4 3.1-2 4.7-2.2 8.4-1.6Z"/>
  <path fill="#696299" d="m239 312 1 5-5.6 4.3-3.2 2.3c-6.3 4.7-6.3 4.7-9.2 6.4-2.9-.8-2.9-.8-5-2l4-4v-3c2-1.7 4-3.2 6.2-4.7l1.7-1.2c3.5-2.4 5.9-3.6 10.1-3.1Z"/>
  <path fill="#a292bd" d="M508.1 595h7.9a16.5 16.5 0 0 1-8 4v2l4-1v2l2 1-3 1 4 7-5 1v-3l-9 2 1-3-2-1v-2l-4-2 2-2v2h2l1-2 2-2-2-1-1 2-2-4c3.2-1.6 6.6-1.1 10.1-1Zm-5.1 9-1 3h8l-2-3c-2.6-.3-2.6-.3-5 0Zm-3 7 1 2-3-1 2-1Z"/>
  <path fill="#a18cb5" d="M535 0h20l-1 3-3.4.3c-3.6.3-3.6.3-5.1 2.6-.7 2.3-.7 2.3.5 5.1h-4l-1-2c-3.2.4-4.6.6-6.8 3l-1.2 2v-2l-2-1h2l-1-7h2l1-4Z"/>
  <path fill="#a18cb6" d="M570-.1h9.3l7.7.1v7h-3l-1 1c-3-1-3-1-5-4h-3l1 4-2 1 1 3-2 2c-1.4-2.4-2-3.5-1.6-6.3L572 6l-3 1h-3l-1-2-2-1V1c2.5-1.3 4.2-1.1 7-1.1Z"/>
  <path fill="#a08cb7" d="M68 1015c1 3 1 3 0 5.2l-1 1.8h2l1-3 3 1v-2l5-1-2 4h-2l-1 3H52l1-5h2v-2l3 1 2-2c3-1 5-1 8-1Z"/>
  <path fill="#a598bd" d="m538 261-1 3h-2v5a54 54 0 0 1-12 .9l-3.4-.2-3.5-.1-3.5-.2-8.6-.4v-1l16-1c.2-3 .2-3-1-6a42.3 42.3 0 0 1 19 0Z"/>
  <path fill="#1d144f" d="M714 583c3 1.6 3 1.6 5 4 .3 3.3.3 3.3 0 6l-2-1-2 3-1.2-2.4c-1.6-2.8-1.6-2.8-4.5-3.4l-2.3-.2-3 7-1-3h-2l-2 3c-.3-4.1-.4-6.3 1.9-9.9 3.9-3.9 7.8-3.7 13.1-3.1Z"/>
  <path fill="#9888b3" d="M529 595v1l-7 1h4l1 2h5l1 2 2 1-1 2-2.3-.5c-2.7-.6-2.7-.6-5.7-.5l-7-1h-3l1 3c-3 1-3 1-5.2 0l-1.8-1 2-4-6 3v-2h2v-2l2-1-3-2c7.4-1 14.6-1.1 22-1Z"/>
  <path fill="#ac9ac4" d="m838 230 3.6 5.5c3.2 3.4 6 4.1 10.4 5.5l-1 4-4 2v-2l-2.3 1.5C842 248 842 248 838 248l-6-2-3-1 2.4-1.4c2.6-1.5 2.6-1.5 4.6-3.6h2l2-2-1.6-1.2-1.4-1.8c.3-2.7.3-2.7 1-5Z"/>
  <path fill="#a08cb7" d="M686 1008h2c4 4.4 4 4.4 4 8l-3 2 1 2-2 1-1 3h-17l2-1-1-3 2-3c3.6-.5 5.9.2 9 2l.8-2c1.2-2 1.2-2 3.3-2.8l1.9-.2v2h2l-1-4h-2l-1-4Z"/>
  <path fill="#9f8cb7" d="M413 0h24c-1.2 4.6-2.2 5.4-6 8h-3V6l-5 1-2-3c-2.9.6-3.9.9-6 3l-2-7Z"/>
  <path fill="#a28db7" d="m667 24 1 2h2c.8 2.1.8 2.1 1 5-1.9 3.1-1.9 3.1-4 6l-1 3c-2 1.2-2 1.2-4 2l-3-3 3-1-2-5h-4l-2 4-2-3c1-2 1-2 2.8-2.7l4.3-1.4c2.3-.9 2.3-.9 3.9-3.9l2 4 2-6Z"/>
  <path fill="#9886b4" d="M494 595h6l1 2-2 1 5 1-2 1-1 2-4 1 4 2-1 2 3 1-2 1-1 3c-2.5-1.3-2.9-2.5-4-5h-6l3-5-2-3 2-1 2 1-1-4Zm9 9c2.4-.2 2.4-.2 5 0l2 3h-8l1-3Z"/>
  <path fill="#a394bd" d="M648 516a24 24 0 0 1-5.9 8l-2 2.1c-5.4 4.9-5.4 4.9-8.1 4.9l.9-5.9.5-3.3c.6-2.8.6-2.8 2.6-4.8 2.3-.4 2.3-.4 5-.6l2.7-.3 4.3-.1Z"/>
  <path fill="#a18db8" d="M272 0h15l-4 4 1 2h-2l-1 5c-2-1-2-1-3-4l-5 4-1-3h-3c.7-3 1.5-5 3-8Z"/>
  <path fill="#8d7eae" d="m903 633 2 3c-8.3 9.5-8.3 9.5-13.6 10H888v-2h-2l-1 3h-2l-2 5-2-1c0-3 0-3 1.3-4.5 9-7.5 9-7.5 15.7-7.5l4-5 3-1Z"/>
  <path fill="#352a62" d="M140 586h2l2 4-2 2h2l1 3h2l1-4c.4 5.5.4 5.5-1.2 7.7-2.4 1.7-3.6 1.4-6.5 1l-2.4-.4c-.7 0-1.3-.2-1.9-.3l1-2c-.8-2.2-.8-2.2-2-4.6l-1-2.5-1-1.9c2.6 0 4.5.3 7 1v-3Z"/>
  <path fill="#9687b8" d="M841 632c3.7 1.5 6 3.8 8.8 6.6l2.4 2.5 1.8 1.9c-3.7 2-3.7 2-6.3 1.6l-1.7-.6-1 2-9-10 3-2 2-2Zm7 13 2 1Z"/>
  <path fill="#a08db8" d="M339 0h13c-.7 8.6-.7 8.6-4 12l-2-3-1.9 1-2.1 1-2-1c1-3 1-3 2-5l-3-2V0Z"/>
  <path fill="#665a97" d="M99 297c5.4-.8 8 .3 12.4 3.5l4.6 3.5-2 2-2-1-1 4a24.9 24.9 0 0 1-12-8v-4Z"/>
  <path fill="#06022f" d="M307 229a7 7 0 0 1 3 3c.4 2.5.4 2.5 0 5-1.7 1.9-1.7 1.9-4 3-3.4-.2-4.6-.6-7-3 .3-3.6.3-3.6 1-7 2.5-1.3 4.2-1.3 7-1Z"/>
  <path fill="#a08cb5" d="m352 1016 1 2 3-1 1.9 1.6 2.1 1.4c2.7-.7 2.7-.7 5-2v-2h5l-1 2.9c-1.1 2.9-1.1 2.9-1 5.1h-13v-2l-3-2v-2l-2-1 2-1Z"/>
  <path fill="#ad9cc4" d="m203 456 4.9-.1 2.7-.1c3.5.3 5 2.8 7.4 5.2-3.6 5.9-3.6 5.9-7 7l-1.3-1.9c-1.7-2.3-1.7-2.3-4.7-4.1h2c-1.2-2.5-2-4-4-6Z"/>
  <path fill="#756896" d="m620 424 2 1-.2 2c-.8 7.7-.8 15.3-.8 23.1 0 13.7-.4 27.3-1 40.9h-1a18090.9 18090.9 0 0 1-.1-63.4c.1-2.6.1-2.6 1.1-3.6Z"/>
  <path fill="#a18db6" d="M482 1014c3.5-.7 5 0 8.3 1.7 2.7 2.3 2.7 2.3 3.1 5-.4 2.3-.4 2.3-1.4 3.3-5.3.4-5.3.4-8 0-2-2-2-2-3-4l1-2-2-1 2-3Z"/>
  <path fill="#6f6394" d="M640 379h1v71h-1l-1-9-2 3c-.7-1.7-.7-1.7-1-4l1.5-2.3c1.7-3 1.9-4.9 2-8.4v-3.4a728553424.1 728553424.1 0 0 1 .2-17.2v-10l.3-19.7Z"/>
  <path fill="#a392c1" d="M514 614c3.4.5 5 1 8 3 .7 2.7.8 5.2 1 8l-4 1-1-1-2 3-4-2 3-1v-2l-2-1 1-2-2-2 3-1-1-3Z"/>
  <path fill="#786d97" d="M459 582c3.8 1 6.5 2 9 5h-3v2l2 1h-3l3 3h-5l-1-3h-1l-1 28h-1a5893 5893 0 0 1-.1-27.2v-2.4l.1-5.4 1-1Z"/>
  <path fill="#978ab0" d="M911 424.8c3 .2 3 .2 5 2.2-.4 3.6-.4 3.6-1 7l-7 1c-2.1-3.2-2.4-4.3-2-8 2-2 2-2 5-2.3Z"/>
  <path fill="#b7a8ce" d="M707 588c3.3.3 4.6.6 7 3 .2 3 .2 3 0 6-1 1-1 1-4.4 1.2-3.6-.2-3.6-.2-5.6-2.2.5-5.5.5-5.5 3-8Z"/>
  <path fill="#ab9ac3" d="M193 560h28l-4 1c1.2 2.5 2 4 4 6-.4 2.6-.4 2.6-1 5l-3-2-3 1 1-7c-3-1.5-5.8-1.4-9.1-1.6l-4-.2-2.9-.2-1 3h-2l-1-3-2-2Z"/>
  <path fill="#a08bb6" d="m744 21-2 10-3 .9c-3.1.7-3.1.7-4 3.1l-3-3 2-3h2l-.7-1.8c-.3-2.2-.3-2.2.9-3.9A12 12 0 0 1 744 21Z"/>
  <path fill="#564d87" d="m258 296 1 6-3.3 2.5-1.9 1.4C252 307 252 307 249 307l-1-3-2-2 3.8-3 2-1.7c2.2-1.3 2.2-1.3 6.2-1.3Z"/>
  <path fill="#ac9ac2" d="M698 600a31.8 31.8 0 0 1 10.4 4.2l1.6.8c-3 1-3 1-5 0l-.8 2.4-1.2 2.6c-3 1-3 1-6 0v2h-2c-.2-2.8-.2-2.8 0-6 1.5-1.7 1.5-1.7 3-3v-3Z"/>
  <path fill="#a18db6" d="m975 1006-1 2-2-1 3 9-2 1-2-1v-3l-4 2 1 4-3-1v-3l-3-1 3-3-1-2c3.8-2.7 6.3-3.3 11-3Z"/>
  <path fill="#9f8db5" d="m19 86 1.3 2 1.7 2h4a16.5 16.5 0 0 1-5 8l-1 1-4 1a36 36 0 0 1-1-8l-1-2 2-1.4c1.9-1.4 1.9-1.4 3-2.6Z"/>
  <path fill="#a195bb" d="M862 802c-.7 4.2-2 7.9-3.6 11.8l-1.3 3.5-1.1 2.7h-2l-1-9h3l-1-1-2-4c5.6-4 5.6-4 9-4Z"/>
  <path fill="#a08bb6" d="m113 1013 4 2c-2 2-2 2-4 3l-1 5c-1 1-1 1-3.5 1.1h-6.1l-2.4-.1c2-3 2-3 4-4l1.3-1.4c2-2 4.1-2.6 6.7-3.6l1-2Z"/>
  <path fill="#3d316c" d="M197 348c3.4.2 4.8.8 7.3 3l1.7 2-2 5c-4-.6-6.7-1.8-10-4 .6-2.9.9-3.9 3-6Z"/>
  <path fill="#1f1646" d="m914 625 2 1c-1.3 3-2.8 5-5.2 7.3l-1.8 1.9-2 1.9-1.9 1.9a1206.6 1206.6 0 0 1-8.1 8l-3-1 2-2c3.7-3.7 7.3-7.5 10.8-11.3l2.1-2.3 5.1-5.4Z"/>
  <path fill="#9f8db8" d="m361.7 13.3 2.3.7v2l2 1-1 5c-2.7 1.4-5 1-8 1a24 24 0 0 1-1-7c1.8-2.7 2.4-3 5.7-2.7Z"/>
  <path fill="#1e174b" d="M818 657h2v2l.4 8.8.2 3v3l.2 2.7c.1 2.5.1 2.5.8 4.7.6 2.5-.3 3.7-1.6 5.8h-2v-30Z"/>
  <path fill="#9f8ab5" d="m152 33-1 3 2 2-1.9.9c-2.2 1-2.2 1-4.1 3.1l-6-2 1-4-2-1c4.5-2.7 7-3.3 12-2Z"/>
  <path fill="#8576a1" d="m262 677 3 1-1 4 5 1v-3h3c-.8 4.8-.8 4.8-3 7-3.5.3-3.5.3-7 0-2.1-3.2-2.4-4.3-2-8l2-2Z"/>
  <path fill="#8b7cac" d="m855 652 2.8 1c3 1 3 1 5.3 1.4 2.7.9 4 2.6 5.9 4.6l-5 5c-3.5-2.5-5.2-3.8-6-8l-3-2v-2Z"/>
  <path fill="#9b8bb6" d="M562 582v10c-3 0-3 0-4.6-1.5L556 589h-2l-1 2-4-1c1-3 1-3 3.2-4.4l2.7-1.3 2.8-1.3c2.3-1 2.3-1 4.3-1Z"/>
  <path fill="#af9dc5" d="M762 541a11 11 0 0 1 4 4c-.2 4.6-1.5 8.2-4 12l-1-5-2 3h-2v-4l-3 1 1-3h2v-2l6 1-1-3 1-2-3-1 2-1Zm-10 11 2 1Z"/>
  <path fill="#0e0c2e" d="M100 851c5.6.6 5.6.6 7 2 .2 2.4.2 2.4 0 5-2 2-2 2-4.5 2.3-2.5-.3-2.5-.3-4.5-2.3-.3-2.5-.3-2.5 0-5l2-2Z"/>
  <path fill="#0c0c3b" d="M906 851c4.6.6 4.6.6 6 2 .2 2.4.2 2.4 0 5-2 2-2 2-4.5 2.3-2.5-.3-2.5-.3-4.5-2.3.3-3.3.6-4.6 3-7Z"/>
  <path fill="#ad9bc2" d="m163 761 1 3 2 1 1-3v2l3 1 3 3 1-4 2 9-1.4-1.5c-4-2.3-7.2-1.7-11.6-1.5l-3-8 3-1Z"/>
  <path fill="#9f8cb7" d="M813 0h10l1 7-1-2h-3l-1 4-6-2 .6-2.4c.7-2.6.7-2.6-.6-4.6Z"/>
  <path fill="#af9ec5" d="M687 247h1l.1 3.3c.5 4 .5 4 3.8 5.5l3.1 1.2 2 2-10 6v-18Z"/>
  <path fill="#9f8eb6" d="m800 1015 2 1-1 4 6-3c.7 1.8.7 1.8 1 4-1.2 1.6-1.2 1.6-3 3-2.3.3-2.3.3-4.7.2H798l-1.9-.2c-.6-1.9-.6-1.9-1-4 2-2 2-2 5-3v-2Z"/>
  <path fill="#100e35" d="M937.6 851.3c2.4.7 2.4.7 3.4 1.7.2 2.4.2 2.4 0 5l-2 2c-3.1-.4-3.1-.4-6-1-.7-2.3-.7-2.3-1-5 1.7-2.8 2.4-3 5.6-2.8Z"/>
  <path fill="#a292c0" d="M548 607c3 1 3 1 5 3h3c-1 3-1 3-3 4l1 2c-1.7 1.6-1.7 1.6-4 3-2.7-.2-2.7-.2-5-1l-1-2 2-2 3 2-2-3c.4-3.2.4-3.2 1-6Z"/>
  <path fill="#0f0a3c" d="m818 625 6 3-1 2.3c-1.3 5-1.2 9.5-1.1 14.6v3l.1 7.1h-1l-1-19-2 3v-14Z"/>
  <path fill="#a18db7" d="m682 25 4 4h-2l1 3 1 3-11-1 1-6 3-1 3-2Z"/>
  <path fill="#a28db6" d="M561 25c-2.1 2-2.1 2-5 4-3.3-.3-3.3-.3-6-1-1.1-3.8-1.1-3.8 0-6 4.8-2 7 0 11 3Z"/>
  <path fill="#ab9cc4" d="M72 583h1v19l-1-4-3 1c-1-4.8-1.2-7.7 1-12l1.1-2.3.9-1.7Z"/>
  <path fill="#ad9dc3" d="m728 702 5 2-1 5c-3.4 1-4.6 1.2-7.8-.4L722 707l2-4 3 1 1-2Z"/>
  <path fill="#d2ebf4" d="M475 377c.8 1.6.8 1.6 1 4-3.4 5.3-5.8 6.6-12 8l-1 2-4-1 2.5-1.8 3.3-2.4 1.6-1.2c3.1-2.4 6-4.8 8.6-7.6Z"/>
  <path fill="#a08cb5" d="m618 1017 5 1v5l3 1h-13c3-5 3-5 5-6v-1Z"/>
  <path fill="#ad9bc4" d="m258 542-1 3h-2v3h-3v3h-2v-2h-4c.2-1.8.2-1.8 1-4 3.7-3 6.4-3.3 11-3Z"/>
  <path fill="#a18db6" d="m954 96 2-1 1 5h2l1 3-2 .4-2 .6-1 2-4-4h2l-4-6c2-1 2-1 5 0Z"/>
  <path fill="#f1ebf4" d="M790 730c2.6.4 2.6.4 5 1 .6 2.4.6 2.4 1 5l-2 2c-2.6-.4-2.6-.4-5-1-.6-2.4-.6-2.4-1-5l2-2Z"/>
  <path fill="#f8f3fb" d="M738.6 433.8c2.4.2 2.4.2 3.4 1.2.2 2.4.2 2.4 0 5l-2 2c-2.6-.4-2.6-.4-5-1-.6-2.4-.6-2.4-1-5 2-2 2-2 4.6-2.2Z"/>
  <path fill="#a18db8" d="M279 33c2.9.6 3.9.9 6 3 0 2.2 0 2.2-.4 4.6l-.3 2.5-.3 1.9-5 1c1-3 1-3 2-5l-2-2-2-3 2-3Z"/>
  <path fill="#b0a1c1" d="M772 655c5 3 5 3 6 5v2c-2 2-2 2-5 2v3h11v1h-12v-13Z"/>
  <path fill="#efeff8" d="M295 567c2.6.4 2.6.4 5 1a17 17 0 0 1 1 4l-2 3-5-1c-.6-2.4-.6-2.4-1-5l2-2Z"/>
  <path fill="#9f8db7" d="m701 2 1 2 3 1v2l1-2h2l1 4c-4 1.8-7.7 2.5-12 3l4-4-3-1 1-2h2V2Z"/>
  <path fill="#af9ac2" d="M817 636a82 82 0 0 1 0 21l-.9-1.8c-1.1-2.4-1.1-2.4-3.1-5.2l1-3c0-2.3 0-4.6-.2-7 .2-2 .6-4 3.2-4Z"/>
  <path fill="#261d59" d="m700 592 3 1v3l9 2v1l-6 1v2l-3 1c-2-2.1-2-2.1-4-5 .3-3.3.3-3.3 1-6Z"/>
  <path fill="#f6f0fa" d="M281 426c2.6.4 2.6.4 5 1 .7 1.8.7 1.8 1 4-1.2 1.8-1.2 1.8-3 3-2.2-.3-2.2-.3-4-1-.6-2.4-.6-2.4-1-5l2-2Z"/>
  <path fill="#9e8cb5" d="M938 1016c-1 3-1 3-3 5l3 1h-2v2h-6l1-5-4-1c6.3-3.1 6.3-3.1 11-2Z"/>
  <path fill="#111131" d="m470 422 4 1c.6 2.4.6 2.4 1 5-2 2-2 2-5 2.3-3-.3-3-.3-5-2.3l2-1.3c2.3-1.6 2.3-1.6 3-4.7Z"/>
  <path fill="#ccecf4" d="M488 363a18 18 0 0 1-5.6 12.6L478 379l-2-3 1.6-1.6c3.7-3.6 7.3-7.2 10.4-11.4Z"/>
  <path fill="#8875a5" d="M597 214c3.1.5 6 1 9 2l-1 4c-3.4.6-3.4.6-7 1l-2-2c.4-2.6.4-2.6 1-5Z"/>
  <path fill="#a08eb6" d="M0 151h3l-1 3 3 1v4l2 1-1 3-3-1v-2l-2 5H0v-14Z"/>
  <path fill="#a596c3" d="M556 602c2 0 2 0 3 1l3-1 1 18c-3.3-4.4-3.3-4.4-4-8l-1-2 1-3-2-1-1-4Z"/>
  <path fill="#141234" d="M158 814c2.2 3.2 2.7 5.2 3 9l-2 3h-3l-2-9 3-1 1-2Z"/>
  <path fill="#8d84b0" d="M585 644h6l-2.8 3.4-1.5 2a8.7 8.7 0 0 1-5.7 2.6l-1-5h4l1-3Z"/>
  <path fill="#a293bf" d="m497 627 6 3v2l-3-1-1 5h-1v-5l-3 3 1 3-4-1v-2l-2-2c4.8-3 4.8-3 7-3v-2Z"/>
  <path fill="#a08bb4" d="M83 53c2.3.2 2.3.2 4 1-.3 1.9-.3 1.9-1 4l-3 2c-.7 2-.7 2-1 4l-5 1 2-1v-2l-2-1 3-1-2-2c2.3-2.6 2.3-2.6 5-5Z"/>
  <path fill="#faf4fc" d="M142.5 424.9c2.5.1 2.5.1 3.5 1.1v5c-1 1-1 1-3.5 1.1-2.5-.1-2.5-.1-3.5-1.1v-5c1-1 1-1 3.5-1.1Z"/>
  <path fill="#a08cb7" d="M1015 50h9v8c-2.4.2-2.4.2-5 0l-2-3 2-1-5-2 1-2Z"/>
  <path fill="#302159" d="M218 641c1 2 1 2 .9 4.9.1 3.5.8 4.6 3.1 7.1l5-1 1 2 6-3c-1.8 3.9-1.8 3.9-4 5-4.2.4-6.3.5-9.9-1.9-2-2-3-3-3.2-6 0-6 0-6 1.1-7.1Z"/>
  <path fill="#776aa1" d="m193 346 1 4-5 1v3h-2l-1-2-2-1v-3c3.1-1.9 5.4-2.2 9-2Z"/>
  <path fill="#9f8db7" d="m958 7 5 2c-.2 2.4-.2 2.4-1 5-2.6 1.3-2.6 1.3-5 2-2.1-4.6-2.1-4.6-1-8l2-1Z"/>
  <path fill="#b1a0c7" d="M258 844h1v7h-22l4-1v-2h6v1h9l2-5Z"/>
  <path fill="#bba7cd" d="m708 345 5 1v5l-4 2c-1.6-1.3-1.6-1.3-3-3 .3-2.1.5-3.5 2-5Z"/>
  <path fill="#aea1c7" d="m614 302 3.5 2.8 2 1.6c1.5 1.6 1.5 1.6 1.5 4.6h-2l-1 3c-2-1.7-3-2.6-3.5-5.3l-.2-2.4-.2-2.4-.1-1.9Z"/>
  <path fill="#9f8db5" d="M919 88c5.5-.4 5.5-.4 7.9 1.5L928 91l-3 1v4l-3 3-3-11Z"/>
  <path fill="#9e8cb5" d="m26 35 4 2-1 7c-4.6.4-4.6.4-6.8-1.5L21 41l3-2v-3l2-1Z"/>
  <path fill="#a18db8" d="M24 997c2.2.3 2.2.3 4 1l-2 1h3l3 2-2 3h-3l-2 2-.9-1.9c-1-2.2-1-2.2-3.1-4.1 1.3-1.6 1.3-1.6 3-3Z"/>
  <path fill="#140d37" d="M164 501c2.6.4 2.6.4 5 1v5c-1 1-1 1-3.6 1H163c-.6-2.4-.6-2.4-1-5l2-2Z"/>
  <path fill="#a08db5" d="M24 45h2a42 42 0 0 1 1 11l-5 2c-.7-1.7-.7-1.7-1-4l3-5v-4Z"/>
  <path fill="#9f8bb6" d="M495 0h10l1 3h-2v2c-5.8.1-5.8.1-8-1l-1-4Z"/>
  <path fill="#9e8cb5" d="M751 1015h6v2h-2l-1 7-6-1v-2h2l1-6Z"/>
  <path fill="#a18cb5" d="M1024 969v9l-4-2-1 5-2-1 1-3-3-1 1-3 6 1-1-3c2-2 2-2 3-2Z"/>
  <path fill="#ae9bc3" d="m262 763 2 2c-.4 2.6-.4 2.6-1 5h-2l-.4 1.9c-.6 2.1-.6 2.1-1.6 4.1h-2c.6-4.2 1.4-8 3-12l2-1Z"/>
  <path fill="#9e8cb4" d="m940 49 2 1c-.8 4.8-.8 4.8-3 7h-2l-1 6-2-1v-9l5-1 1-3Z"/>
  <path fill="#a18db6" d="M538 1018c5.8 1.9 5.8 1.9 8 3-1.9 1.9-3.3 3-6 3.2l-6-.2c1.2-2.5 2-4 4-6Zm-7-5c5.6.6 5.6.6 8 3l-5 6c-2.9-2.4-3.6-4.3-4-8l1-1Z"/>
  <path fill="#2d284c" d="M619 491h1c.7 14.8.7 14.8-4 21-1.3-2.6-.8-3.6-.2-6.4l.5-2.5.6-2.7a2200882138.5 2200882138.5 0 0 1 2.1-9.4Z"/>
  <path fill="#29224c" d="M401 492c1.7 3.1 2.5 6 3.2 9.5l.5 2.8a14 14 0 0 1-.7 6.7l-3-2c-.2-3-.3-5.7-.2-8.6v-2.5l.2-5.9Z"/>
  <path fill="#1a142f" d="m836 219 4 1 1 6-4 2c-1.6-2.3-1.6-2.3-3-5 .8-2.3.8-2.3 2-4Z"/>
  <path fill="#a08cb5" d="M521 0h10c-1.3 2.5-2.5 2.7-5 4-1.7 1.5-1.7 1.5-3 3-1.6-1.3-1.6-1.3-3-3l1-4Z"/>
  <path fill="#a08db8" d="M869 1015c2.6 1.3 2.9 2.4 4 5a69 69 0 0 1 1 4h-8l1-4h2v-5Z"/>
  <path fill="#a08cb5" d="M76 33c2.3-.3 2.3-.3 5 0a22 22 0 0 1 3 5l-3 3-2-1v-2h-3v-5Zm-2 5h2l-1 3-1-3Z"/>
  <path fill="#9f8cb6" d="M841 1019c4.2.4 4.7 1.7 8 5h-13l2-4h2l1-1Zm0 2 1 2 1-2h-2Z"/>
  <path fill="#8277a7" d="m903 633 2 3-7 7-2-1c.5-3.7 1-5.7 4-8l3-1Z"/>
  <path fill="#a69bbb" d="m462 474 1 2-1.8.1c-4.7.4-7.5.8-11.2 3.9l-3-1v-2a26 26 0 0 1 15-3Z"/>
  <path fill="#332e60" d="m104 387 2 1-3 4 7 1c-2.4 1.9-4 3-7 4l-4-4c1.1-3.4 2.1-4 5-6Z"/>
  <path fill="#9e8bb4" d="m1009 101 4 5c-1.8 3.9-1.8 3.9-4 5l-2-1v-3l-2-1 4-5Z"/>
  <path fill="#9587ae" d="M218 773h2l.2 7.3v2c.1 4.7-.2 5.7-3.2 9.7l1-19Z"/>
  <path fill="#0e0936" d="m246 501 5 1v5l-5 1c-1-1-1-1-1.1-3.5.1-2.5.1-2.5 1.1-3.5Z"/>
  <path fill="#ac9bc1" d="M742 693c2.4.2 2.4.2 5 1 1.3 2.6 1.3 2.6 2 5l-5 2c-2.2-3.2-2.2-4.3-2-8Z"/>
  <path fill="#9a8db5" d="m131 602-2 6-3-2c-2 1.8-2 1.8-3 4l-7-1c4.2-3.5 9.4-7 15-7Z"/>
  <path fill="#b9a5cc" d="m342 538 4 1v5c-1.8.7-1.8.7-4 1-1.8-1.4-1.8-1.4-3-3l3-4Z"/>
  <path fill="#b19fc5" d="M680 249h1v16h-1v-6l-4 1-1-4 2-1.3c2.2-1.9 2.6-2.8 3-5.7Z"/>
  <path fill="#9f8cb7" d="m832 11 3 3-1 2 3 1-3 2c-.7 2-.7 2-1 4l-3-1a25 25 0 0 1 2-11Z"/>
  <path fill="#ae9bc1" d="M873 758h1v9c-2.5 1.8-2.5 1.8-5 3-.4-6.5-.4-6.5 1.4-8.8l1.6-1.2 1-2Z"/>
  <path fill="#ae9dc7" d="m292 274 18 2v1h-8v2l-4 3-2-1 1-4-5-2v-1Z"/>
  <path fill="#a08bb7" d="M385 3h1c.3 2.8.3 2.8 0 6-2.5 2.4-2.5 2.4-5 4l-2-1 2-7h3l1-2Z"/>
  <path fill="#9e8bb8" d="m997 1 1 3-2.4.6c-3 1.2-3 1.2-3.8 4.5L991 12l-2 1c-.6-2.3-.6-2.3-1-5 2-3 2-3 4-5h2l3-2Z"/>
  <path fill="#a08eb8" d="m968 0-1 3-1.9-.1h-2.4l-2.4-.2c-2.8.4-3.6 1.2-5.3 3.3l-1-2c3.6-5.3 8.2-4.4 14-4Z"/>
  <path fill="#ab9fc7" d="M258 815h1v28h-1v-2l-.4-8.8-.2-3.1v-3l-.2-2.7c-.1-2.6-.1-2.6-1.2-5.4l2-3Z"/>
  <path fill="#b3a6d0" d="m193 560 23 1v1h-17l-1 3h-2l-1-3-2-2Z"/>
  <path fill="#ad9cc7" d="m385 518 1 3-2 1-1-3-2-1v2c-4.2.2-7.2-.2-11-2v-1c11-1.6 11-1.6 15 1Z"/>
  <path fill="#a08cb5" d="m46 113 7 2v2l-2 1 1 2h-2l-1 2c-1.6-2.4-1.6-2.4-3-5l1-2-2-1 1-1Zm-2 5 2 1Z"/>
  <path fill="#9f8bb6" d="M478 0h8l-2 1 1 3h-2v2l-3 1c-2-2-2-2-2.1-4.6L478 0Z"/>
  <path fill="#9e8bb6" d="M446 0h8l-1 3h-2l-1 3h-4V0Z"/>
  <path fill="#9f8ab3" d="M259 1013c2 3.7 3 6.7 3 11h-5l1-3-2-1 1-5h2v-2Zm20 2h4l2 4-1.5 1.4c-1.7 1.5-1.7 1.5-1.5 3.6h-6l1.5-1.1c2.1-2.6 1.7-4.6 1.5-7.9Z"/>
  <path fill="#7f749d" d="M560 660v2h-2l-.8 1.8a16 16 0 0 1-4.2 5.2h-2l-2 4-2-1 4.4-4.9 2.4-2.7c4-4.4 4-4.4 6.2-4.4Z"/>
  <path fill="#9386ae" d="M495 631h3v5h4l1-3 6 3v1h-13v-2l-2-1 1-3Z"/>
  <path fill="#9483b4" d="m504 624 4 3-2 1 1 2c-3.5 1.2-5.5.7-9 0 1.2-3.7 2.6-4.2 6-6Z"/>
  <path fill="#b09fc5" d="M242 475c2.4.8 2.4.8 5 2 .8 2.1.8 2.1 1 4l-1.7-.6c-2.3-.6-2.3-.6-4.9.2-2.4.4-2.4.4-5.4-1.6h4v-2h2v-2Z"/>
  <path fill="#ad9fcb" d="m820 217 2.6 1.9c3.2 2 5.9 3 9.4 4.1-2.6 1.7-4 2.4-7 3v-2h-2c-3-4.4-3-4.4-3-7Z"/>
  <path fill="#b8a5ce" d="m493 195 5 1-1 5h-5v-5l1-1Z"/>
  <path fill="#9f8cb5" d="m38 99 3 1a32 32 0 0 1 2 5l-4 3-4-5 2-2 1-2Z"/>
  <path fill="#9f8cb7" d="m151 4 5 2v2l-3 2-1 3c-1.6-2.6-2-3.7-1.6-6.8L151 4Zm-2 9h3v2l2 1h-3v-2l-2-1Z"/>
  <path fill="#ac9bc8" d="M130 549h2l1.2 2.8 1.7 3.6 1.6 3.7c1.2 3 1.2 3 3.5 3.9v4c-3-1-3-1-4-2.6l-.8-2-1-2.1-.9-2.3-1-2.3c-2.3-5.5-2.3-5.5-2.3-6.7Z"/>
  <path fill="#0a0526" d="m205 539 5 1-1 5-5-1 1-5Z"/>
  <path fill="#08042f" d="m205 464 5 1-1 5-5-1 1-5Z"/>
  <path fill="#a08cb5" d="m957 109 5 1 1 2-4 4-1-2-3 1-1-2 2-1 1-3Z"/>
  <path fill="#9e8cb7" d="M181 0h9l-3 2c-.3 3-.3 3 0 6l-3 1-3-9Z"/>
  <path fill="#110e3c" d="m903 637 3 1a334.5 334.5 0 0 1-5 6.2 9.4 9.4 0 0 1-6 2.8l-1-2 1.7-1.5 2.2-2 2.3-1.9 2.8-2.6Z"/>
  <path fill="#9a8ab7" d="M559 596h3c.1 5.8.1 5.8-1 8h-3v-2l-2-1c1.3-2.5 1.3-2.5 3-5Z"/>
  <path fill="#ad9bc1" d="m695 455 2 3 2 2-1 3h-2l-1-8Zm5 2h6l1 2h-2v2h-2v-2l-4 1 1-3Z"/>
  <path fill="#0a0c34" d="m470 421-1 3h-9v-3c3.6-1.2 6.3-.7 10 0Z"/>
  <path fill="#ab98c5" d="m648 271 6 5c-1.7 1.1-1.7 1.1-4 2-2.8-.9-2.8-.9-5-2l3-5Z"/>
  <path fill="#7c739a" d="m520 266 8 1c-3 1.8-5.2 2.2-8.8 2.2h-5.5l-2.8-.1-6.9-.1v-1l16-1v-1Z"/>
  <path fill="#9b8bb2" d="M709 234c2 2 2 2 2 5h-3l-1 3-5-1 7-7Z"/>
  <path fill="#9e8cb4" d="M912 57h2v2l-3 1 1-3Zm-6 3h5c-.3 2-.3 2-1 4l-3 1v2h-3v-2h2v-5Z"/>
  <path fill="#9f8db6" d="M257 42c3.1-.2 3.1-.2 6 0v3h-5v2l-5 2-1-3 3-1 2-3Z"/>
  <path fill="#0e0a30" d="m877 852 5 1v5l-5 1v-7Z"/>
  <path fill="#b09ec5" d="m136 806 3 2-1 7-8-1v-1h6v-7Z"/>
  <path fill="#80709c" d="M907 428h2c4 4.5 4 4.5 4 7-2.4.2-2.4.2-5 0-2-3-2-3-1.6-5.2l.6-1.8Z"/>
  <path fill="#e0e1ed" d="m838 319-1.8.8c-2.3 1.2-4 2.6-6 4.3l-1.8 1.7-1.4 1.2c0-4 0-4 2.1-6.3 3.3-2 5.1-2 8.9-1.7Z"/>
  <path fill="#b19fc9" d="m264 224-1 18h-1l-.1-3-.3-3.8-.2-3.7c-.4-3.1-.8-5-2.4-7.5 3-1 3-1 5 0Z"/>
  <path fill="#9e8cb4" d="m999 125 3 4-5 7c-1.2-3.5-1-6.4-1-10l3-1Zm-970 0 1 2h2l2 6-1 2-3-1c-2.3-5.2-2.3-5.2-1-9Zm5 6 2 1Z"/>
  <path fill="#908aaf" d="M853 811h6l-3 9h-2l-1-9Z"/>
  <path fill="#9d90ae" d="M773 674h10v1h-7l.2 2.3c-.2 2.7-.2 2.7-3.2 6.7v-10Z"/>
  <path fill="#8e7fb1" d="m856 644-3 3h-2l-1 3c-2-1.3-2-1.3-4-3v-3c3.7-1 6.3-1 10 0Z"/>
  <path fill="#a695c2" d="M543 602c1.5 2.3 2.8 4.5 4 7l-4 1 1-4h-2l-1 3-3-1-1-3h6v-3Z"/>
  <path fill="#2d2560" d="M720 591v6l-2 2-4-3c1-4.6 1.2-5 6-5Z"/>
  <path fill="#c8e3ec" d="M497 350c1 3 1 3 .3 5l-1 2-1.1 2.2C494 361 494 361 491 363l-2-2 1.5-1.9 2-2.5 1.9-2.4c1.6-2 1.6-2 2.6-4.2Z"/>
  <path fill="#ac9bc1" d="M820 208v9l-3 1c-.7-3.3-.7-3.3-1-7 2.1-3 2.1-3 4-3Z"/>
  <path fill="#9f8ab6" d="M1024 170c0 3 0 5-1 8l-4-1v-5c3.9-2 3.9-2 5-2Z"/>
  <path fill="#a08bb4" d="M537 14v2l2 1a10.2 10.2 0 0 1-7 4l1-3h-2c1.6-3.2 2.3-4 6-4Z"/>
  <path fill="#a08cb5" d="m451 1018 3 1v2l5 2v1h-9l1-6Z"/>
  <path fill="#ae9fc4" d="M840 826c3.4 1.4 5.5 3.3 8 6-5.6.3-5.6.3-9-2l1-4Z"/>
  <path fill="#ab9ac3" d="M118 697c1.5 1 1.5 1 3 3 .3 2.7.1 5.3 0 8l-2-1 1-2-3-1 1-7Z"/>
  <path fill="#9c92b5" d="m417 292 2 1c-1 3-1 3-3 5v2h-5l-1-2 7-6Z"/>
  <path fill="#9f8db6" d="m916 852 1 2 2 1-2 1 1 2-2 2-3-1-1-5 4-2Z"/>
  <path fill="#a494c3" d="M500 615h2v2l2 1-1 5 4-1v3h-5l-2-10Z"/>
  <path fill="#ad9cc7" d="m142 567 1 2c2 .7 2 .7 4 1l-4 2 1 3 1 4c-2.3-2.1-4-4-5-7 .5-3.5.5-3.5 2-5Z"/>
  <path fill="#b3a3c6" d="M380 373c.3 8.6.3 8.6-2 12v-7l-1 2-3-1v-2c4.6-4 4.6-4 6-4Z"/>
  <path fill="#ac9ac2" d="M650 229c2.4-.2 2.4-.2 5 0l2 3c-3 .8-6 1.4-9 2l2-5Z"/>
  <path fill="#a08db6" d="m886 74 5 1-2 4h-2l-1 2c-1.1-4.8-1.1-4.8 0-7Zm5 0 2 1Z"/>
  <path fill="#9f8bb4" d="m71 36 2 1v3c-4.4 2-4.4 2-7.3 1.6L64 41c4.8-3.9 4.8-3.9 7-5Z"/>
  <path fill="#a08db8" d="M885 19c1.5 2.6 2 3.9 2 7h-5c-.2-2.4-.2-2.4 0-5l3-2Z"/>
  <path fill="#a18db6" d="m51 999 5 2-4 7-2-1v-7l1-1Z"/>
  <path fill="#af9bc4" d="m177 781 2 1-1 4h3v-2l3-1c-.4 2.9-.8 3.8-3 5.8l-2 1.2c-2.3-3.4-2.2-5-2-9Z"/>
  <path fill="#9889b7" d="M898 632v2h-2l-.8 2.4c-1.2 2.6-1.2 2.6-3.1 4-2.1.6-2.1.6-5.1.6l4.4-4.5 2.4-2.5c2.2-2 2.2-2 4.2-2Z"/>
  <path fill="#a092b8" d="M171 531c5.7 1.5 5.7 1.5 7.4 4.1l.6 1.9-5 1-3-7Z"/>
  <path fill="#9f92b7" d="m389 322 .9 2c1 2.2 1 2.2 3.1 3l-1 3c-3.1 0-4.4-.5-7-2l4-6Z"/>
  <path fill="#958cb1" d="m403 305 2 3-2.4 1.8C400 312 400 312 398 315l-3-1 8-9Z"/>
  <path fill="#af9bc4" d="m414 273 2 3-5 6-2-2c.4-2.1.4-2.1 1-4l4-1v-2Z"/>
  <path fill="#9f8bb5" d="m1019 148 3 1-1 7c-2 0-2 0-4-2l-1-3 3-3Z"/>
  <path fill="#a18db5" d="M31 98c-1 2.5-1.5 3.7-4 5-2 0-2 0-3.8-1.4L22 100l1.9-.4C29.8 98 29.8 98 31 98Z"/>
  <path fill="#9f8db5" d="m192 77 3 2-2.4 1.4c-2.7 1.3-2.7 1.3-3.6 3.6l-4-1 2-2v-3h3l2-1Z"/>
  <path fill="#a18cb7" d="M714 0h8c-1.2 2.5-2 4-4 6l-3-1-1-5Z"/>
  <path fill="#ac9ac2" d="M842 845c2 3 2 3 3 7l-9-1c2-2 2-2 5-2l1-4Z"/>
  <path fill="#9c8db6" d="M124 829c3.4 1.2 6.3 2.6 9 5v2l-2.3-1c-2.7-1.2-2.7-1.2-5.7-1v-3l-2-1 1-1Z"/>
  <path fill="#180e3f" d="m642 523 1 3-2.4 1.9c-2.6 1.8-2.6 1.8-3.6 4.1h-3c1.6-4.3 4.5-6.3 8-9Z"/>
  <path fill="#ac9bc3" d="M150 493v7h-5l1-6c3-1 3-1 4-1Z"/>
  <path fill="#9d92b8" d="m376 344 3 1c0 3 0 3-2 5l-2 2-1 3h-2l1.4-4.4.8-2.4c.8-2.2.8-2.2 1.8-4.2Z"/>
  <path fill="#524482" d="m839 231 3 1v2l1.9.9c2.1 1.1 2.1 1.1 4.1 3.1l-4 1c-5-5.8-5-5.8-5-8Z"/>
  <path fill="#a18db6" d="M1001 180c3.1.4 3.1.4 6 1-2 2-2 2-4 3-2.2.8-2.2.8-3 3h-2c.8-4.8.8-4.8 3-7Z"/>
  <path fill="#9f8cb5" d="M974 115h7c0 2 0 2-2 4l-1 2c-2.8-1.4-3-3.2-4-6Z"/>
  <path fill="#a08db7" d="M238 3c4.8 3.4 4.8 3.4 5.8 6.3l.2 1.7h-4l-1-5-3-1 2-2Z"/>
  <path fill="#a18db6" d="m501 1019 1 2h2l1-2v2l2 1-1 2h-6l1-5Z"/>
  <path fill="#a08cb5" d="M141 1003h5v3l-3 1v2l-5-1 1-3h2v-2Z"/>
  <path fill="#a095b8" d="m169 804 4 5-2 3v-2h-6l4-6Z"/>
  <path fill="#ad9dc4" d="m826 778 1 2h5l1-2 2 3c-2.4 1.2-4 1.1-6.6 1H824v-2h2v-2Z"/>
  <path fill="#ab9bc4" d="M731 711h2l2 5-3 3-3-5h2v-3Z"/>
  <path fill="#b09fc5" d="m118 635 2 1v2c2.1 1.4 2.1 1.4 5 0l1 3-3 3c-3-2.5-4-5.2-5-9Z"/>
  <path fill="#9486b0" d="M526 631h7c-1.4 2-2.5 2.9-5 3.4l-6 .6v-3l4 1v-2Z"/>
  <path fill="#ab9cc4" d="M666 611h3c1.1 3.3 1.1 3.3 2 7l-2 3-3-10Z"/>
  <path fill="#1b1744" d="m230 609 5 1-1 3h-12v-1l8-1v-2Z"/>
  <path fill="#ac9ac2" d="m305 594 3 2-1 3-5 1-1-4 4-2Z"/>
  <path fill="#b29ec8" d="m385 530 3 1v12c-3-3-3-3-3-6h2v-5h-2v-2Z"/>
  <path fill="#9081ac" d="M160 495h1l.4 2.4c.4 2.7.4 2.7 2.6 4.6l-2 3-1 6h-1v-16Z"/>
  <path fill="#a79bbd" d="M559 474c7.4-.3 7.4-.3 11 2l-3 3-3-1v-2l-5-1v-1Z"/>
  <path fill="#9b86b6" d="M599 210c2.4-.2 2.4-.2 5 0l2 3-1 3h-6l3-1-3-5Z"/>
  <path fill="#a18db6" d="m599 38 1 7-4 2c-1.2-3.6-.6-4.6 1-8 1-1 1-1 2-1Z"/>
  <path fill="#af9cc3" d="m147 775 4 1a56.5 56.5 0 0 1-4 7c-2-3-2-3-1.7-5.1.7-1.9.7-1.9 1.7-2.9Z"/>
  <path fill="#ac9cc3" d="m295 707 2 2-6 7c-1-3-1-3 .3-5.6 1.7-2.4 1.7-2.4 3.7-3.4Z"/>
  <path fill="#9888af" d="M266 676c1.9.3 1.9.3 4 1l2 3h-3v3l-3-1v-6Z"/>
  <path fill="#231955" d="M836 639c3.2.4 4.6.6 6.8 3l1.2 2c-4.2 0-5-.3-8-3v-2Z"/>
  <path fill="#ae9dc7" d="M853 613c5-.3 5.8-.2 10 3h-11l1-3Z"/>
  <path fill="#aba0c9" d="M560 607h2l1 13c-3.2-4.2-4-5.9-4-11l1-2Z"/>
  <path fill="#af9dc7" d="M663 281h12l-1 2-3.3-.2c-3.8.2-5 .6-7.7 3.2v-5Z"/>
  <path fill="#a18db6" d="m949 170 3 2 3-1c0 2 0 2-2 4l-3 2-1-2 1-2h-2l1-3Z"/>
  <path fill="#a08eb6" d="m98 130 4 4h-2l-1 3-3-1-1 2 1-5 2-1v-2Z"/>
  <path fill="#a08db5" d="m915 103 2 1-3 2-1 3c-3 1.2-3 1.2-6 2l1-5c2 0 2 0 3 1l4-4Z"/>
  <path fill="#a08bb4" d="M62 77v2h-2l1 1.9 2 4.1-2 2-.9-2c-1-2.2-1-2.2-3.1-3h2l-1-4c2-1 2-1 4-1Z"/>
  <path fill="#a18db8" d="M391 15h2v2l2 1h-2l-2 5-2-1 2-7Z"/>
  <path fill="#42326d" d="M209 702v7h-2l-1-3-3-2c3.8-2 3.8-2 6-2Z"/>
  <path fill="#8073a0" d="m538 679 2 1-3.8 4.5c-1.3 1.5-1.3 1.5-2.2 3.5h-3c1.6-3.8 4-6.2 7-9Z"/>
  <path fill="#9787b1" d="m246 651 1 2h5l-1 3c-4 0-4 0-5-1l-3 2v-3l3-1v-2Z"/>
  <path fill="#a895c5" d="m497 601 1 2h2l1-2 4 2-2 1-1 3h-2v-2l-4-2 1-2Z"/>
  <path fill="#a797c4" d="m542 594 2 1-1 4 4 1c-2.3.7-2.3.7-5 1-1.8-1.4-1.8-1.4-3-3a15 15 0 0 1 3-4Z"/>
  <path fill="#1a124d" d="M719 587v6l-2-1-2 3c-.7-2.3-.7-2.3-1-5 1.6-2.2 2.2-3 5-3Z"/>
  <path fill="#2e2660" d="m715 584 3 3-4 4-3-3 4-2v-2Z"/>
  <path fill="#9183a7" d="m562 582-1 6h-2v-2l-6 2v-2c6.8-4 6.8-4 9-4Z"/>
  <path fill="#9d8eba" d="m161 505 2 1v2l3 1h-3l-1 7h-1v-11Z"/>
  <path fill="#af9cc5" d="m349 414 6 1v2c-3 2-3 2-6 2l-1-4 1-1Z"/>
  <path fill="#e8fbfd" d="M497 353c1 2.6 1 3.7.2 6.4l-1.1 2.4-1.2 2.4-.9 1.8c-1-2.6-1-3.7-.2-6.4l1.1-2.4 1.2-2.4.9-1.8Z"/>
  <path fill="#d9deec" d="m500 344 3 1c.7 2 .7 2 1 4-2 .6-3.8 1-6 1l2-6Z"/>
  <path fill="#a28db6" d="M994 158c-.2 1.9-.2 1.9-1 4-2.6 1.3-2.6 1.3-5 2 .8-4 1.4-6 6-6Z"/>
  <path fill="#9f8bb4" d="M1003 149v3Zm-5 1 4 2-3 6-2-1 1-7Z"/>
  <path fill="#a28db6" d="M967 117h2v2l4 1-1 3-3 1-1-3-2-1 1-3Z"/>
  <path fill="#a18db6" d="m0 90 5 1c-1.4 3.2-2 4-5 6v-7Z"/>
  <path fill="#a08cb7" d="m1003 1020 7 3v1h-8l1-4Z"/>
  <path fill="#a28eb6" d="M956 986h5l1 3h-2v2l-5-1 1-4Z"/>
  <path fill="#aa9ac4" d="m116 814 6 1-3 8h-1l-2-9Z"/>
  <path fill="#8578a6" d="m883 644 1 3c-1.4 2.7-1.4 2.7-3 5l-2-1c0-3 0-3 2-5.2l2-1.8Z"/>
  <path fill="#938bb7" d="M588 644h3a105 105 0 0 1-4 5h-2l-1-4c1-1 1-1 4-1Z"/>
  <path fill="#a190bf" d="m490 621 1 2h-2l1 3-2 1-1 2-4-4 1.8-.3a10 10 0 0 0 5.2-3.7Z"/>
  <path fill="#ad9ac2" d="M693 478c3.4 1.1 4 2.1 6 5l2 1-5 1c-3-3.6-3-3.6-3-7Z"/>
  <path fill="#ae99c2" d="M108 479h5c-1.2 2.5-2 4-4 6v-2l-3 1-2-1v-2l5 1-1-3Z"/>
  <path fill="#1b183c" d="m576 428 4 2-2 3h-4c.9-3.9.9-3.9 2-5Z"/>
  <path fill="#ae9dc4" d="M355 401h1v8h-4c1.9-5.8 1.9-5.8 3-8Z"/>
  <path fill="#ad9bc3" d="m289 292 4 1-2 1a530 530 0 0 0-1 5l-2 2v-2l-2-1h2l1-6Z"/>
  <path fill="#9f8bb4" d="M80 97h2v2h2l-1 2 1 1-1 3-4-1 1-3v-4Z"/>
  <path fill="#a28db7" d="M1013 39h4c-.6 3.4-1.8 5.4-4 8v-3l-2-1 3-1-1-3Z"/>
  <path fill="#9f8db7" d="M340 25h2v4h2l-1 3h-4c0-2.6.3-4.5 1-7Z"/>
  <path fill="#a08bb4" d="M238 1020v4h-5v-4c3-1 3-1 5 0Z"/>
  <path fill="#a18db6" d="m1011 922 1 3c-2.6 1.5-3.9 2-7 2 2.3-5 2.3-5 6-5Z"/>
  <path fill="#1e173b" d="M98 853h2v2l2 1-1 3 4 1h-5c-2-2-2-2-2.1-4.6l.1-2.4Z"/>
  <path fill="#b5a2c2" d="m154 816-1 4-5 1-1-3c2.6-1.5 3.9-2 7-2Z"/>
  <path fill="#9a8bb5" d="m886 811 4 2-1 2h-10v-1l3-.4 3-.6 1-2Z"/>
  <path fill="#ac9ac3" d="m274 741-2 7-3-1c1-6 1-6 5-6Z"/>
  <path fill="#ac9bc1" d="m217 733 2 4-1 3-4-1c1.9-4.9 1.9-4.9 3-6Z"/>
  <path fill="#ac9ac2" d="m881 716 3 3c-4.8 3-4.8 3-7 3v-3l4-1v-2Z"/>
  <path fill="#8275a1" d="m511 716 3 1-3 5-3-2v-2l3-2Z"/>
  <path fill="#9281af" d="m509 627 3 1h3l-2 1-1 3h-3l-1-4 1-1Z"/>
  <path fill="#9c8dbb" d="M463 621.3c2 .7 2 .7 4 3.7-3 0-3 0-6-1l-2 1v-3c2-1 2-1 4-.8Z"/>
  <path fill="#9686b4" d="m527 617 2 1-1 3h2l1 5-1-2c-2-.7-2-.7-4-1l-1-5 2-1Z"/>
  <path fill="#a796c3" d="m552 596 1 2 2 1c-3.8 3-3.8 3-6 3l-1-4 3 1 1-3Z"/>
  <path fill="#ac9ac2" d="m192 568 2 4-5 3v-2l-2-1 2-.9c2.2-1 2.2-1 3-3.1Z"/>
  <path fill="#ae9ac3" d="m879 423 4 1v4l-6-1 2-4Z"/>
  <path fill="#ddf9fe" d="M489 362h2c-.6 3.5-2 6-4 9l-2 1a57 57 0 0 1 4-10Z"/>
  <path fill="#32275e" d="M197 348c2.7.3 2.7.3 5 1l-5 4-3-2c1.2-1.6 1.2-1.6 3-3Z"/>
  <path fill="#ad9dc5" d="M744 290h3c-.9 5.8-.9 5.8-2 8h-3l1-4h2l-1-4Z"/>
  <path fill="#aa9cc2" d="M906 269c2.2.3 2.2.3 4 1v3c-3 1-3 1-5.2 0l-1.8-1c1.3-1.6 1.3-1.6 3-3Z"/>
  <path fill="#8f7caf" d="m597 214 1 3h3v3l-3 1-2-2c.4-2.6.4-2.6 1-5Z"/>
  <path fill="#9f8db6" d="m56 125-1 5-5 1 1-2v-3c2-1 2-1 5-1Z"/>
  <path fill="#a18cb5" d="M1023 111h1v10l-4-3 3-7Z"/>
  <path fill="#9f8db5" d="m929 61 3 1-3 1v-2Zm-2 2c2 .8 2 .8 4 2l1 3-4-1-1-4Z"/>
  <path fill="#a08cb6" d="m125 45 1 3 2 1-4 2-2-5 3-1Zm-4 3 2 1-1 2-1-3Z"/>
  <path fill="#a18db6" d="m569 23-1 4-6-1v-2c2.5-1.2 4.3-1 7-1Z"/>
  <path fill="#9f8bb6" d="m692 14 1 2 2 1c-1.3 1.5-1.3 1.5-3 3h-3l1-5 2-1Z"/>
  <path fill="#a28db6" d="M574 1022v2h-9c2-4.2 5-2.8 9-2Z"/>
  <path fill="#ae9dc2" d="m142 811 5 2v2h-2v3l-2-1-1-4-2-1 2-1Z"/>
  <path fill="#7f6e9d" d="M269 680h3l-1 5-4 1 2-6Z"/>
  <path fill="#140b2f" d="m267 648 3 2-1 4-4-1 2-5Z"/>
  <path fill="#ad9bc3" d="M285 632c.3 3.1.2 4.6-1.5 7.3L282 641l-1-8c3-1 3-1 4-1Z"/>
  <path fill="#a594c2" d="m554 616 3 1 1 3c-3 1-3.9 1-7 0 2-3 2-3 3-4Z"/>
  <path fill="#392e69" d="M703 597a34 34 0 0 1 3 3v2l-3 1v-6Zm3 1h6v1h-6v-1Z"/>
  <path fill="#a899c0" d="M495.6 594h2.4l-3 2v3l-5 1c2.3-6 2.3-6 5.6-6Z"/>
  <path fill="#9383b2" d="m484 593 4 1-1 5h-3c-1.1-3.8-1.1-3.8 0-6Z"/>
  <path fill="#9485ad" d="M890 508h1v8h2l-1 5c-2.2-3.3-2.2-4.3-2.1-8.2v-2.7l.1-2.1Z"/>
  <path fill="#a192b6" d="m229 477 1 2h3l-2 6-1-2-2-1 1-5Z"/>
  <path fill="#ac9ac2" d="m224 444 1 2 2 1c-3.4.6-3.4.6-7 1l-2-2 6-2Z"/>
  <path fill="#2c2553" d="m104 387 2 1-2 1.8-2 2.2c.1 2.2.1 2.2 1 4l-3-1c-.7-2-.7-2-1-4l5-4Z"/>
  <path fill="#ac9bc2" d="m858 232 1 2 2 1-2 2-2-3 1-2Zm2 0h5l1 2h-5l-1-2Z"/>
  <path fill="#b1a2c9" d="M687 229c-.8 5.8-.8 5.8-3 8-.6-2.9-.6-2.9-1-6 2-2 2-2 4-2Z"/>
  <path fill="#a08bb4" d="m978 179 4 1v5h-2v-2l-3 1c0-3 0-3 1-5Z"/>
  <path fill="#a08cb5" d="M69 104h6l-2 4h-3l-1-4Z"/>
  <path fill="#9f8cb5" d="M916 64c2.9.4 3.8.8 5.8 3l1.2 2-2 1-5-5v-1Zm0 4 2 1h-3l1-1Z"/>
  <path fill="#ac9bc3" d="m117 776 2 2-1 3-5 1v-4h3l1-2Z"/>
  <path fill="#ac9ac2" d="M852 712c1 3 1 3 1 6l-4 1c1.9-5.9 1.9-5.9 3-7Z"/>
  <path fill="#43376a" d="M213 623c0 3 0 3-1.9 5.2-2.1 1.8-2.1 1.8-4.1 1.8 1.4-3.4 3-5 6-7Z"/>
  <path fill="#9685b4" d="m519 617 2 1c0 4 0 4-2 6l-3-1c1.9-4.9 1.9-4.9 3-6Z"/>
  <path fill="#9483b2" d="M523.4 613.9c3.6.1 3.6.1 6.6 1.1l-1 2c-6 .2-6 .2-8 0l-2-2c1-1 1-1 4.4-1.1Z"/>
  <path fill="#a796c4" d="m525 609 2 2c-.4 2.1-.4 2.1-1 4l-5-1-1-2 2-.4 2-.6 1-2Z"/>
  <path fill="#998ab5" d="M876 546c0 4-1.5 5.1-4 8l-3-1 3-3h2l2-4Z"/>
  <path fill="#9d8eb5" d="M262 518h3c-.5 3.4-1 5-3 8-.8-3.3-1.1-4.7 0-8Z"/>
  <path fill="#998ab2" d="M243 499c2 3 2 3 1.6 5.2l-.6 1.8h-3c.9-5.9.9-5.9 2-7Z"/>
  <path fill="#e4fcfe" d="M476 377h3l1 3-4 3c-1.2-2.5-.8-3.4 0-6Z"/>
  <path fill="#aba0ca" d="M625 332a59 59 0 0 1 5 5v4c-3-2.5-4-5.2-5-9Z"/>
  <path fill="#ac9ac3" d="M764 267h3l1 5h-5l1-5Z"/>
  <path fill="#ad9bc3" d="m797.3 266.9 1.7 1.1c-3.4 2.3-5 2.2-9 2 1.6-3.3 3.8-4.5 7.3-3.1Z"/>
  <path fill="#a08cb5" d="m971 93 3 3-2 2c-2.1-.4-2.1-.4-4-1 1-3 1-3 3-4Z"/>
  <path fill="#9f8cb5" d="m889 93 1 2h-3l-1 4h-2l1-5 4-1Z"/>
  <path fill="#a08eb6" d="m233 72 1 2h-2l-1 3-5 1c.1-1.9.1-1.9 1-4 3-1.3 3-1.3 6-2Z"/>
  <path fill="#9f8db6" d="m934 44-4 4-5-2c6.4-3.3 6.4-3.3 9-2Z"/>
  <path fill="#a18cb5" d="M575 15v2h-2l-1 5c-2-3.8-2-3.8-2-6 2-1 2-1 5-1Z"/>
  <path fill="#9e8cb6" d="M470 0c-1.1 3.4-2.1 4-5 6V1c1-1 1-1 5-1Z"/>
  <path fill="#9f8bb4" d="m375 1020 4 2v2h-7l1-2h2v-2Z"/>
  <path fill="#84729e" d="M176 777h1l.2 2.1.2 2.8.3 2.7c.2 2.4.2 2.4 1.3 4.4l-2 2c-1.4-2.8-1.1-5-1-8.1V777Z"/>
  <path fill="#221b40" d="m127 761-3 2-3.2 2.1-2.8 1.9c2-5.5 3.2-6.2 9-6Z"/>
  <path fill="#4d407a" d="m852 653 6 4-4 3-.4-1.9c-.5-2.3-.5-2.3-2.6-4.1l1-1Z"/>
  <path fill="#a296bc" d="m469 625 3 3h-3v2l-4-2 4-3Z"/>
  <path fill="#a08ebd" d="M557 611h4v4h-2l-1 2c-.6-2-1-3.8-1-6Z"/>
  <path fill="#a595c2" d="m520 604 3 1v2l-3 .4-3 .6-1 2v-3c1.8-1.8 1.8-1.8 4-3Z"/>
  <path fill="#a392bf" d="m491 600 3 2a17 17 0 0 1-4 5l-2-1 3-6Z"/>
  <path fill="#a292be" d="m526 601 8 3c-3 2-3 2-6 3v-4h-2v-2Z"/>
  <path fill="#ad9ec6" d="M642 568c1.6 1.2 1.6 1.2 3 3-.3 2.7-.3 2.7-1 5-1.6-1.2-1.6-1.2-3-3 .3-2.7.3-2.7 1-5Z"/>
  <path fill="#ae9cc5" d="m378 568 2 1c-.6 3.3-1.5 4.8-4 7-.2-3.7-.2-4.8 2-8Z"/>
  <path fill="#726399" d="m188 346 2 2-1 2h-3v2l-2-1v-3l4-2Z"/>
  <path fill="#ad9bc4" d="m312 275 7 1-1 3h-3l-1-2h-3l1-2Z"/>
  <path fill="#ac9dc5" d="m822 240 7 1c-2.6 1.4-5 2.4-8 3 0-3 0-3 1-4Z"/>
  <path fill="#9f8bb4" d="m1003 165 4 2-1 5h-2v-3l-2-1 1-3Z"/>
  <path fill="#9f8ab3" d="m978 122 3 1-1 5-3-1 1-5Z"/>
  <path fill="#9e8bb3" d="m900 77 4 4h-5l-1-3 2-1Z"/>
  <path fill="#a18db6" d="m5 76 3 2-1 5H5v-2l-2-1 2-4Z"/>
  <path fill="#9d8bb5" d="M201 55c2 0 2 0 4 2h1v5c-3.8-2.5-3.8-2.5-4.8-5.2L201 55Z"/>
  <path fill="#9f8bb4" d="M881 46c1.5 2.6 2 3.9 2 7h-3l1-5-3-1 3-1Z"/>
  <path fill="#9e8bb6" d="m201 30 2 1v6l-2 1v-4h-2l2-4Z"/>
  <path fill="#9f8cb7" d="M377 26c3 .3 3 .3 6 1l1 2-2 2-2-2a89 89 0 0 0-4-2l1-1Z"/>
</svg>
